G04 #@! TF.FileFunction,Legend,Top*
%FSLAX46Y46*%
G04 Gerber Fmt 4.6, Leading zero omitted, Abs format (unit mm)*
G04 Created by KiCad (PCBNEW 4.0.6) date 2017 August 12, Saturday 19:45:09*
%MOMM*%
%LPD*%
G01*
G04 APERTURE LIST*
%ADD10C,0.100000*%
%ADD11C,0.120000*%
%ADD12C,0.150000*%
%ADD13C,0.050000*%
%ADD14C,0.075000*%
G04 APERTURE END LIST*
D10*
D11*
X86744871Y-120015000D02*
G75*
G03X86744871Y-120015000I-8004871J0D01*
G01*
X82304000Y-89750000D02*
X83304000Y-89750000D01*
X83304000Y-88050000D02*
X82304000Y-88050000D01*
X85178000Y-78986000D02*
X85178000Y-77986000D01*
X83478000Y-77986000D02*
X83478000Y-78986000D01*
X63859665Y-104075608D02*
G75*
G03X67092000Y-104232516I1672335J1078608D01*
G01*
X63859665Y-101918392D02*
G75*
G02X67092000Y-101761484I1672335J-1078608D01*
G01*
X64490870Y-104076837D02*
G75*
G03X66572961Y-104077000I1041130J1079837D01*
G01*
X64490870Y-101917163D02*
G75*
G02X66572961Y-101917000I1041130J-1079837D01*
G01*
X67092000Y-104233000D02*
X67092000Y-104077000D01*
X67092000Y-101917000D02*
X67092000Y-101761000D01*
X63859665Y-119315608D02*
G75*
G03X67092000Y-119472516I1672335J1078608D01*
G01*
X63859665Y-117158392D02*
G75*
G02X67092000Y-117001484I1672335J-1078608D01*
G01*
X64490870Y-119316837D02*
G75*
G03X66572961Y-119317000I1041130J1079837D01*
G01*
X64490870Y-117157163D02*
G75*
G02X66572961Y-117157000I1041130J-1079837D01*
G01*
X67092000Y-119473000D02*
X67092000Y-119317000D01*
X67092000Y-117157000D02*
X67092000Y-117001000D01*
X63859665Y-114235608D02*
G75*
G03X67092000Y-114392516I1672335J1078608D01*
G01*
X63859665Y-112078392D02*
G75*
G02X67092000Y-111921484I1672335J-1078608D01*
G01*
X64490870Y-114236837D02*
G75*
G03X66572961Y-114237000I1041130J1079837D01*
G01*
X64490870Y-112077163D02*
G75*
G02X66572961Y-112077000I1041130J-1079837D01*
G01*
X67092000Y-114393000D02*
X67092000Y-114237000D01*
X67092000Y-112077000D02*
X67092000Y-111921000D01*
X63859665Y-124395608D02*
G75*
G03X67092000Y-124552516I1672335J1078608D01*
G01*
X63859665Y-122238392D02*
G75*
G02X67092000Y-122081484I1672335J-1078608D01*
G01*
X64490870Y-124396837D02*
G75*
G03X66572961Y-124397000I1041130J1079837D01*
G01*
X64490870Y-122237163D02*
G75*
G02X66572961Y-122237000I1041130J-1079837D01*
G01*
X67092000Y-124553000D02*
X67092000Y-124397000D01*
X67092000Y-122237000D02*
X67092000Y-122081000D01*
X63859665Y-109155608D02*
G75*
G03X67092000Y-109312516I1672335J1078608D01*
G01*
X63859665Y-106998392D02*
G75*
G02X67092000Y-106841484I1672335J-1078608D01*
G01*
X64490870Y-109156837D02*
G75*
G03X66572961Y-109157000I1041130J1079837D01*
G01*
X64490870Y-106997163D02*
G75*
G02X66572961Y-106997000I1041130J-1079837D01*
G01*
X67092000Y-109313000D02*
X67092000Y-109157000D01*
X67092000Y-106997000D02*
X67092000Y-106841000D01*
X67266000Y-79850000D02*
X73366000Y-79850000D01*
X67266000Y-80950000D02*
X67266000Y-79850000D01*
X73366000Y-85250000D02*
X68366000Y-85250000D01*
D12*
X46355000Y-127460000D02*
X46990000Y-126190000D01*
X46990000Y-126190000D02*
X47625000Y-127460000D01*
X55880000Y-69370000D02*
X55880000Y-127490000D01*
X55880000Y-127490000D02*
X45720000Y-127490000D01*
X45720000Y-127490000D02*
X45720000Y-69370000D01*
X45720000Y-69370000D02*
X55880000Y-69370000D01*
X49720000Y-109510000D02*
X50270000Y-109510000D01*
D11*
X86166000Y-69282000D02*
X83506000Y-69282000D01*
X86166000Y-71882000D02*
X86166000Y-69282000D01*
X83506000Y-71882000D02*
X83506000Y-69282000D01*
X86166000Y-71882000D02*
X83506000Y-71882000D01*
X86166000Y-73152000D02*
X86166000Y-74482000D01*
X86166000Y-74482000D02*
X84836000Y-74482000D01*
X59852000Y-102117000D02*
X61052000Y-102117000D01*
X61052000Y-103877000D02*
X59852000Y-103877000D01*
X59852000Y-117357000D02*
X61052000Y-117357000D01*
X61052000Y-119117000D02*
X59852000Y-119117000D01*
X59852000Y-112277000D02*
X61052000Y-112277000D01*
X61052000Y-114037000D02*
X59852000Y-114037000D01*
X59852000Y-122437000D02*
X61052000Y-122437000D01*
X61052000Y-124197000D02*
X59852000Y-124197000D01*
X59852000Y-107197000D02*
X61052000Y-107197000D01*
X61052000Y-108957000D02*
X59852000Y-108957000D01*
X61376000Y-69478000D02*
X62576000Y-69478000D01*
X62576000Y-71238000D02*
X61376000Y-71238000D01*
X61376000Y-71383000D02*
X62576000Y-71383000D01*
X62576000Y-73143000D02*
X61376000Y-73143000D01*
X61376000Y-73288000D02*
X62576000Y-73288000D01*
X62576000Y-75048000D02*
X61376000Y-75048000D01*
X62576000Y-76826000D02*
X61376000Y-76826000D01*
X61376000Y-75066000D02*
X62576000Y-75066000D01*
X79156000Y-73288000D02*
X80356000Y-73288000D01*
X80356000Y-75048000D02*
X79156000Y-75048000D01*
X79156000Y-69732000D02*
X80356000Y-69732000D01*
X80356000Y-71492000D02*
X79156000Y-71492000D01*
X79156000Y-75066000D02*
X80356000Y-75066000D01*
X80356000Y-76826000D02*
X79156000Y-76826000D01*
X79156000Y-71510000D02*
X80356000Y-71510000D01*
X80356000Y-73270000D02*
X79156000Y-73270000D01*
X76418018Y-107497432D02*
G75*
G02X76417000Y-101973000I1171982J2762432D01*
G01*
X79518295Y-102437247D02*
G75*
G02X79518000Y-107033000I-1928295J-2297753D01*
G01*
X84150000Y-109696000D02*
X80284000Y-109696000D01*
X75895000Y-109696000D02*
X72030000Y-109696000D01*
X84150000Y-99775000D02*
X80284000Y-99775000D01*
X75895000Y-99775000D02*
X72030000Y-99775000D01*
X84150000Y-109696000D02*
X84150000Y-108060000D01*
X84150000Y-106410000D02*
X84150000Y-105560000D01*
X84150000Y-103910000D02*
X84150000Y-103060000D01*
X84150000Y-101410000D02*
X84150000Y-99775000D01*
X72030000Y-109696000D02*
X72030000Y-99775000D01*
X74016000Y-71010000D02*
X74016000Y-70560000D01*
X74016000Y-70560000D02*
X67716000Y-70560000D01*
X67716000Y-70560000D02*
X67716000Y-70960000D01*
X74016000Y-72310000D02*
X74016000Y-75010000D01*
X67716000Y-75010000D02*
X67716000Y-72310000D01*
X74016000Y-76760000D02*
X67716000Y-76760000D01*
X67716000Y-76760000D02*
X67716000Y-76310000D01*
X74016000Y-76310000D02*
X74016000Y-76760000D01*
X59326000Y-79400000D02*
X58876000Y-79400000D01*
X58876000Y-79400000D02*
X58876000Y-85700000D01*
X58876000Y-85700000D02*
X59276000Y-85700000D01*
X60626000Y-79400000D02*
X63326000Y-79400000D01*
X63326000Y-85700000D02*
X60626000Y-85700000D01*
X65076000Y-79400000D02*
X65076000Y-85700000D01*
X65076000Y-85700000D02*
X64626000Y-85700000D01*
X64626000Y-79400000D02*
X65076000Y-79400000D01*
X82406000Y-85700000D02*
X82856000Y-85700000D01*
X82856000Y-85700000D02*
X82856000Y-79400000D01*
X82856000Y-79400000D02*
X82456000Y-79400000D01*
X81106000Y-85700000D02*
X78406000Y-85700000D01*
X78406000Y-79400000D02*
X81106000Y-79400000D01*
X76656000Y-85700000D02*
X76656000Y-79400000D01*
X76656000Y-79400000D02*
X77106000Y-79400000D01*
X77106000Y-85700000D02*
X76656000Y-85700000D01*
X67716000Y-94090000D02*
X67716000Y-94540000D01*
X67716000Y-94540000D02*
X74016000Y-94540000D01*
X74016000Y-94540000D02*
X74016000Y-94140000D01*
X67716000Y-92790000D02*
X67716000Y-90090000D01*
X74016000Y-90090000D02*
X74016000Y-92790000D01*
X67716000Y-88340000D02*
X74016000Y-88340000D01*
X74016000Y-88340000D02*
X74016000Y-88790000D01*
X67716000Y-88790000D02*
X67716000Y-88340000D01*
X71626000Y-114610000D02*
X71626000Y-113680000D01*
X71626000Y-111450000D02*
X71626000Y-112380000D01*
X71626000Y-111450000D02*
X69466000Y-111450000D01*
X71626000Y-114610000D02*
X70166000Y-114610000D01*
X79116000Y-90062000D02*
X79116000Y-91322000D01*
X79116000Y-96882000D02*
X79116000Y-95622000D01*
X82876000Y-90062000D02*
X79116000Y-90062000D01*
X85126000Y-96882000D02*
X79116000Y-96882000D01*
D13*
X82754000Y-89007143D02*
X82739714Y-89021429D01*
X82696857Y-89035714D01*
X82668286Y-89035714D01*
X82625429Y-89021429D01*
X82596857Y-88992857D01*
X82582572Y-88964286D01*
X82568286Y-88907143D01*
X82568286Y-88864286D01*
X82582572Y-88807143D01*
X82596857Y-88778571D01*
X82625429Y-88750000D01*
X82668286Y-88735714D01*
X82696857Y-88735714D01*
X82739714Y-88750000D01*
X82754000Y-88764286D01*
X83039714Y-89035714D02*
X82868286Y-89035714D01*
X82954000Y-89035714D02*
X82954000Y-88735714D01*
X82925429Y-88778571D01*
X82896857Y-88807143D01*
X82868286Y-88821429D01*
X84435143Y-78536000D02*
X84449429Y-78550286D01*
X84463714Y-78593143D01*
X84463714Y-78621714D01*
X84449429Y-78664571D01*
X84420857Y-78693143D01*
X84392286Y-78707428D01*
X84335143Y-78721714D01*
X84292286Y-78721714D01*
X84235143Y-78707428D01*
X84206571Y-78693143D01*
X84178000Y-78664571D01*
X84163714Y-78621714D01*
X84163714Y-78593143D01*
X84178000Y-78550286D01*
X84192286Y-78536000D01*
X84192286Y-78421714D02*
X84178000Y-78407428D01*
X84163714Y-78378857D01*
X84163714Y-78307428D01*
X84178000Y-78278857D01*
X84192286Y-78264571D01*
X84220857Y-78250286D01*
X84249429Y-78250286D01*
X84292286Y-78264571D01*
X84463714Y-78436000D01*
X84463714Y-78250286D01*
D12*
X70127905Y-83002381D02*
X70127905Y-82002381D01*
X70366000Y-82002381D01*
X70508858Y-82050000D01*
X70604096Y-82145238D01*
X70651715Y-82240476D01*
X70699334Y-82430952D01*
X70699334Y-82573810D01*
X70651715Y-82764286D01*
X70604096Y-82859524D01*
X70508858Y-82954762D01*
X70366000Y-83002381D01*
X70127905Y-83002381D01*
X71556477Y-82002381D02*
X71366000Y-82002381D01*
X71270762Y-82050000D01*
X71223143Y-82097619D01*
X71127905Y-82240476D01*
X71080286Y-82430952D01*
X71080286Y-82811905D01*
X71127905Y-82907143D01*
X71175524Y-82954762D01*
X71270762Y-83002381D01*
X71461239Y-83002381D01*
X71556477Y-82954762D01*
X71604096Y-82907143D01*
X71651715Y-82811905D01*
X71651715Y-82573810D01*
X71604096Y-82478571D01*
X71556477Y-82430952D01*
X71461239Y-82383333D01*
X71270762Y-82383333D01*
X71175524Y-82430952D01*
X71127905Y-82478571D01*
X71080286Y-82573810D01*
X50466667Y-126198381D02*
X50466667Y-126912667D01*
X50419047Y-127055524D01*
X50323809Y-127150762D01*
X50180952Y-127198381D01*
X50085714Y-127198381D01*
X51466667Y-127198381D02*
X50895238Y-127198381D01*
X51180952Y-127198381D02*
X51180952Y-126198381D01*
X51085714Y-126341238D01*
X50990476Y-126436476D01*
X50895238Y-126484095D01*
D14*
X60368667Y-103223190D02*
X60202000Y-102985095D01*
X60082953Y-103223190D02*
X60082953Y-102723190D01*
X60273429Y-102723190D01*
X60321048Y-102747000D01*
X60344857Y-102770810D01*
X60368667Y-102818429D01*
X60368667Y-102889857D01*
X60344857Y-102937476D01*
X60321048Y-102961286D01*
X60273429Y-102985095D01*
X60082953Y-102985095D01*
X60844857Y-103223190D02*
X60559143Y-103223190D01*
X60702000Y-103223190D02*
X60702000Y-102723190D01*
X60654381Y-102794619D01*
X60606762Y-102842238D01*
X60559143Y-102866048D01*
X60368667Y-118463190D02*
X60202000Y-118225095D01*
X60082953Y-118463190D02*
X60082953Y-117963190D01*
X60273429Y-117963190D01*
X60321048Y-117987000D01*
X60344857Y-118010810D01*
X60368667Y-118058429D01*
X60368667Y-118129857D01*
X60344857Y-118177476D01*
X60321048Y-118201286D01*
X60273429Y-118225095D01*
X60082953Y-118225095D01*
X60559143Y-118010810D02*
X60582953Y-117987000D01*
X60630572Y-117963190D01*
X60749619Y-117963190D01*
X60797238Y-117987000D01*
X60821048Y-118010810D01*
X60844857Y-118058429D01*
X60844857Y-118106048D01*
X60821048Y-118177476D01*
X60535334Y-118463190D01*
X60844857Y-118463190D01*
X60368667Y-113383190D02*
X60202000Y-113145095D01*
X60082953Y-113383190D02*
X60082953Y-112883190D01*
X60273429Y-112883190D01*
X60321048Y-112907000D01*
X60344857Y-112930810D01*
X60368667Y-112978429D01*
X60368667Y-113049857D01*
X60344857Y-113097476D01*
X60321048Y-113121286D01*
X60273429Y-113145095D01*
X60082953Y-113145095D01*
X60535334Y-112883190D02*
X60844857Y-112883190D01*
X60678191Y-113073667D01*
X60749619Y-113073667D01*
X60797238Y-113097476D01*
X60821048Y-113121286D01*
X60844857Y-113168905D01*
X60844857Y-113287952D01*
X60821048Y-113335571D01*
X60797238Y-113359381D01*
X60749619Y-113383190D01*
X60606762Y-113383190D01*
X60559143Y-113359381D01*
X60535334Y-113335571D01*
X60368667Y-123543190D02*
X60202000Y-123305095D01*
X60082953Y-123543190D02*
X60082953Y-123043190D01*
X60273429Y-123043190D01*
X60321048Y-123067000D01*
X60344857Y-123090810D01*
X60368667Y-123138429D01*
X60368667Y-123209857D01*
X60344857Y-123257476D01*
X60321048Y-123281286D01*
X60273429Y-123305095D01*
X60082953Y-123305095D01*
X60797238Y-123209857D02*
X60797238Y-123543190D01*
X60678191Y-123019381D02*
X60559143Y-123376524D01*
X60868667Y-123376524D01*
X60368667Y-108303190D02*
X60202000Y-108065095D01*
X60082953Y-108303190D02*
X60082953Y-107803190D01*
X60273429Y-107803190D01*
X60321048Y-107827000D01*
X60344857Y-107850810D01*
X60368667Y-107898429D01*
X60368667Y-107969857D01*
X60344857Y-108017476D01*
X60321048Y-108041286D01*
X60273429Y-108065095D01*
X60082953Y-108065095D01*
X60821048Y-107803190D02*
X60582953Y-107803190D01*
X60559143Y-108041286D01*
X60582953Y-108017476D01*
X60630572Y-107993667D01*
X60749619Y-107993667D01*
X60797238Y-108017476D01*
X60821048Y-108041286D01*
X60844857Y-108088905D01*
X60844857Y-108207952D01*
X60821048Y-108255571D01*
X60797238Y-108279381D01*
X60749619Y-108303190D01*
X60630572Y-108303190D01*
X60582953Y-108279381D01*
X60559143Y-108255571D01*
D13*
X61926000Y-70493714D02*
X61826000Y-70350857D01*
X61754572Y-70493714D02*
X61754572Y-70193714D01*
X61868857Y-70193714D01*
X61897429Y-70208000D01*
X61911714Y-70222286D01*
X61926000Y-70250857D01*
X61926000Y-70293714D01*
X61911714Y-70322286D01*
X61897429Y-70336571D01*
X61868857Y-70350857D01*
X61754572Y-70350857D01*
X62183143Y-70193714D02*
X62126000Y-70193714D01*
X62097429Y-70208000D01*
X62083143Y-70222286D01*
X62054572Y-70265143D01*
X62040286Y-70322286D01*
X62040286Y-70436571D01*
X62054572Y-70465143D01*
X62068857Y-70479429D01*
X62097429Y-70493714D01*
X62154572Y-70493714D01*
X62183143Y-70479429D01*
X62197429Y-70465143D01*
X62211714Y-70436571D01*
X62211714Y-70365143D01*
X62197429Y-70336571D01*
X62183143Y-70322286D01*
X62154572Y-70308000D01*
X62097429Y-70308000D01*
X62068857Y-70322286D01*
X62054572Y-70336571D01*
X62040286Y-70365143D01*
X61926000Y-72398714D02*
X61826000Y-72255857D01*
X61754572Y-72398714D02*
X61754572Y-72098714D01*
X61868857Y-72098714D01*
X61897429Y-72113000D01*
X61911714Y-72127286D01*
X61926000Y-72155857D01*
X61926000Y-72198714D01*
X61911714Y-72227286D01*
X61897429Y-72241571D01*
X61868857Y-72255857D01*
X61754572Y-72255857D01*
X62026000Y-72098714D02*
X62226000Y-72098714D01*
X62097429Y-72398714D01*
X61926000Y-74303714D02*
X61826000Y-74160857D01*
X61754572Y-74303714D02*
X61754572Y-74003714D01*
X61868857Y-74003714D01*
X61897429Y-74018000D01*
X61911714Y-74032286D01*
X61926000Y-74060857D01*
X61926000Y-74103714D01*
X61911714Y-74132286D01*
X61897429Y-74146571D01*
X61868857Y-74160857D01*
X61754572Y-74160857D01*
X62097429Y-74132286D02*
X62068857Y-74118000D01*
X62054572Y-74103714D01*
X62040286Y-74075143D01*
X62040286Y-74060857D01*
X62054572Y-74032286D01*
X62068857Y-74018000D01*
X62097429Y-74003714D01*
X62154572Y-74003714D01*
X62183143Y-74018000D01*
X62197429Y-74032286D01*
X62211714Y-74060857D01*
X62211714Y-74075143D01*
X62197429Y-74103714D01*
X62183143Y-74118000D01*
X62154572Y-74132286D01*
X62097429Y-74132286D01*
X62068857Y-74146571D01*
X62054572Y-74160857D01*
X62040286Y-74189429D01*
X62040286Y-74246571D01*
X62054572Y-74275143D01*
X62068857Y-74289429D01*
X62097429Y-74303714D01*
X62154572Y-74303714D01*
X62183143Y-74289429D01*
X62197429Y-74275143D01*
X62211714Y-74246571D01*
X62211714Y-74189429D01*
X62197429Y-74160857D01*
X62183143Y-74146571D01*
X62154572Y-74132286D01*
X61926000Y-76081714D02*
X61826000Y-75938857D01*
X61754572Y-76081714D02*
X61754572Y-75781714D01*
X61868857Y-75781714D01*
X61897429Y-75796000D01*
X61911714Y-75810286D01*
X61926000Y-75838857D01*
X61926000Y-75881714D01*
X61911714Y-75910286D01*
X61897429Y-75924571D01*
X61868857Y-75938857D01*
X61754572Y-75938857D01*
X62068857Y-76081714D02*
X62126000Y-76081714D01*
X62154572Y-76067429D01*
X62168857Y-76053143D01*
X62197429Y-76010286D01*
X62211714Y-75953143D01*
X62211714Y-75838857D01*
X62197429Y-75810286D01*
X62183143Y-75796000D01*
X62154572Y-75781714D01*
X62097429Y-75781714D01*
X62068857Y-75796000D01*
X62054572Y-75810286D01*
X62040286Y-75838857D01*
X62040286Y-75910286D01*
X62054572Y-75938857D01*
X62068857Y-75953143D01*
X62097429Y-75967429D01*
X62154572Y-75967429D01*
X62183143Y-75953143D01*
X62197429Y-75938857D01*
X62211714Y-75910286D01*
X79563143Y-74303714D02*
X79463143Y-74160857D01*
X79391715Y-74303714D02*
X79391715Y-74003714D01*
X79506000Y-74003714D01*
X79534572Y-74018000D01*
X79548857Y-74032286D01*
X79563143Y-74060857D01*
X79563143Y-74103714D01*
X79548857Y-74132286D01*
X79534572Y-74146571D01*
X79506000Y-74160857D01*
X79391715Y-74160857D01*
X79848857Y-74303714D02*
X79677429Y-74303714D01*
X79763143Y-74303714D02*
X79763143Y-74003714D01*
X79734572Y-74046571D01*
X79706000Y-74075143D01*
X79677429Y-74089429D01*
X80034571Y-74003714D02*
X80063143Y-74003714D01*
X80091714Y-74018000D01*
X80106000Y-74032286D01*
X80120286Y-74060857D01*
X80134571Y-74118000D01*
X80134571Y-74189429D01*
X80120286Y-74246571D01*
X80106000Y-74275143D01*
X80091714Y-74289429D01*
X80063143Y-74303714D01*
X80034571Y-74303714D01*
X80006000Y-74289429D01*
X79991714Y-74275143D01*
X79977429Y-74246571D01*
X79963143Y-74189429D01*
X79963143Y-74118000D01*
X79977429Y-74060857D01*
X79991714Y-74032286D01*
X80006000Y-74018000D01*
X80034571Y-74003714D01*
X79563143Y-70747714D02*
X79463143Y-70604857D01*
X79391715Y-70747714D02*
X79391715Y-70447714D01*
X79506000Y-70447714D01*
X79534572Y-70462000D01*
X79548857Y-70476286D01*
X79563143Y-70504857D01*
X79563143Y-70547714D01*
X79548857Y-70576286D01*
X79534572Y-70590571D01*
X79506000Y-70604857D01*
X79391715Y-70604857D01*
X79848857Y-70747714D02*
X79677429Y-70747714D01*
X79763143Y-70747714D02*
X79763143Y-70447714D01*
X79734572Y-70490571D01*
X79706000Y-70519143D01*
X79677429Y-70533429D01*
X80134571Y-70747714D02*
X79963143Y-70747714D01*
X80048857Y-70747714D02*
X80048857Y-70447714D01*
X80020286Y-70490571D01*
X79991714Y-70519143D01*
X79963143Y-70533429D01*
X79563143Y-76081714D02*
X79463143Y-75938857D01*
X79391715Y-76081714D02*
X79391715Y-75781714D01*
X79506000Y-75781714D01*
X79534572Y-75796000D01*
X79548857Y-75810286D01*
X79563143Y-75838857D01*
X79563143Y-75881714D01*
X79548857Y-75910286D01*
X79534572Y-75924571D01*
X79506000Y-75938857D01*
X79391715Y-75938857D01*
X79848857Y-76081714D02*
X79677429Y-76081714D01*
X79763143Y-76081714D02*
X79763143Y-75781714D01*
X79734572Y-75824571D01*
X79706000Y-75853143D01*
X79677429Y-75867429D01*
X79963143Y-75810286D02*
X79977429Y-75796000D01*
X80006000Y-75781714D01*
X80077429Y-75781714D01*
X80106000Y-75796000D01*
X80120286Y-75810286D01*
X80134571Y-75838857D01*
X80134571Y-75867429D01*
X80120286Y-75910286D01*
X79948857Y-76081714D01*
X80134571Y-76081714D01*
X79563143Y-72525714D02*
X79463143Y-72382857D01*
X79391715Y-72525714D02*
X79391715Y-72225714D01*
X79506000Y-72225714D01*
X79534572Y-72240000D01*
X79548857Y-72254286D01*
X79563143Y-72282857D01*
X79563143Y-72325714D01*
X79548857Y-72354286D01*
X79534572Y-72368571D01*
X79506000Y-72382857D01*
X79391715Y-72382857D01*
X79848857Y-72525714D02*
X79677429Y-72525714D01*
X79763143Y-72525714D02*
X79763143Y-72225714D01*
X79734572Y-72268571D01*
X79706000Y-72297143D01*
X79677429Y-72311429D01*
X79948857Y-72225714D02*
X80134571Y-72225714D01*
X80034571Y-72340000D01*
X80077429Y-72340000D01*
X80106000Y-72354286D01*
X80120286Y-72368571D01*
X80134571Y-72397143D01*
X80134571Y-72468571D01*
X80120286Y-72497143D01*
X80106000Y-72511429D01*
X80077429Y-72525714D01*
X79991714Y-72525714D01*
X79963143Y-72511429D01*
X79948857Y-72497143D01*
D12*
X69532667Y-77964762D02*
X69675524Y-78012381D01*
X69913620Y-78012381D01*
X70008858Y-77964762D01*
X70056477Y-77917143D01*
X70104096Y-77821905D01*
X70104096Y-77726667D01*
X70056477Y-77631429D01*
X70008858Y-77583810D01*
X69913620Y-77536190D01*
X69723143Y-77488571D01*
X69627905Y-77440952D01*
X69580286Y-77393333D01*
X69532667Y-77298095D01*
X69532667Y-77202857D01*
X69580286Y-77107619D01*
X69627905Y-77060000D01*
X69723143Y-77012381D01*
X69961239Y-77012381D01*
X70104096Y-77060000D01*
X70437429Y-77012381D02*
X70675524Y-78012381D01*
X70866001Y-77298095D01*
X71056477Y-78012381D01*
X71294572Y-77012381D01*
X72199334Y-78012381D02*
X71627905Y-78012381D01*
X71913619Y-78012381D02*
X71913619Y-77012381D01*
X71818381Y-77155238D01*
X71723143Y-77250476D01*
X71627905Y-77298095D01*
X66280762Y-83883333D02*
X66328381Y-83740476D01*
X66328381Y-83502380D01*
X66280762Y-83407142D01*
X66233143Y-83359523D01*
X66137905Y-83311904D01*
X66042667Y-83311904D01*
X65947429Y-83359523D01*
X65899810Y-83407142D01*
X65852190Y-83502380D01*
X65804571Y-83692857D01*
X65756952Y-83788095D01*
X65709333Y-83835714D01*
X65614095Y-83883333D01*
X65518857Y-83883333D01*
X65423619Y-83835714D01*
X65376000Y-83788095D01*
X65328381Y-83692857D01*
X65328381Y-83454761D01*
X65376000Y-83311904D01*
X65328381Y-82978571D02*
X66328381Y-82740476D01*
X65614095Y-82549999D01*
X66328381Y-82359523D01*
X65328381Y-82121428D01*
X65423619Y-81788095D02*
X65376000Y-81740476D01*
X65328381Y-81645238D01*
X65328381Y-81407142D01*
X65376000Y-81311904D01*
X65423619Y-81264285D01*
X65518857Y-81216666D01*
X65614095Y-81216666D01*
X65756952Y-81264285D01*
X66328381Y-81835714D01*
X66328381Y-81216666D01*
X76260762Y-83883333D02*
X76308381Y-83740476D01*
X76308381Y-83502380D01*
X76260762Y-83407142D01*
X76213143Y-83359523D01*
X76117905Y-83311904D01*
X76022667Y-83311904D01*
X75927429Y-83359523D01*
X75879810Y-83407142D01*
X75832190Y-83502380D01*
X75784571Y-83692857D01*
X75736952Y-83788095D01*
X75689333Y-83835714D01*
X75594095Y-83883333D01*
X75498857Y-83883333D01*
X75403619Y-83835714D01*
X75356000Y-83788095D01*
X75308381Y-83692857D01*
X75308381Y-83454761D01*
X75356000Y-83311904D01*
X75308381Y-82978571D02*
X76308381Y-82740476D01*
X75594095Y-82549999D01*
X76308381Y-82359523D01*
X75308381Y-82121428D01*
X75308381Y-81835714D02*
X75308381Y-81216666D01*
X75689333Y-81550000D01*
X75689333Y-81407142D01*
X75736952Y-81311904D01*
X75784571Y-81264285D01*
X75879810Y-81216666D01*
X76117905Y-81216666D01*
X76213143Y-81264285D01*
X76260762Y-81311904D01*
X76308381Y-81407142D01*
X76308381Y-81692857D01*
X76260762Y-81788095D01*
X76213143Y-81835714D01*
X69532667Y-87944762D02*
X69675524Y-87992381D01*
X69913620Y-87992381D01*
X70008858Y-87944762D01*
X70056477Y-87897143D01*
X70104096Y-87801905D01*
X70104096Y-87706667D01*
X70056477Y-87611429D01*
X70008858Y-87563810D01*
X69913620Y-87516190D01*
X69723143Y-87468571D01*
X69627905Y-87420952D01*
X69580286Y-87373333D01*
X69532667Y-87278095D01*
X69532667Y-87182857D01*
X69580286Y-87087619D01*
X69627905Y-87040000D01*
X69723143Y-86992381D01*
X69961239Y-86992381D01*
X70104096Y-87040000D01*
X70437429Y-86992381D02*
X70675524Y-87992381D01*
X70866001Y-87278095D01*
X71056477Y-87992381D01*
X71294572Y-86992381D01*
X72104096Y-87325714D02*
X72104096Y-87992381D01*
X71866000Y-86944762D02*
X71627905Y-87659048D01*
X72246953Y-87659048D01*
D14*
X70592190Y-113410952D02*
X70592190Y-113125238D01*
X71092190Y-113268095D02*
X70592190Y-113268095D01*
X71092190Y-112696667D02*
X71092190Y-112982381D01*
X71092190Y-112839524D02*
X70592190Y-112839524D01*
X70663619Y-112887143D01*
X70711238Y-112934762D01*
X70735048Y-112982381D01*
D11*
X80587905Y-94081524D02*
X81235524Y-94081524D01*
X81311714Y-94043429D01*
X81349810Y-94005333D01*
X81387905Y-93929143D01*
X81387905Y-93776762D01*
X81349810Y-93700571D01*
X81311714Y-93662476D01*
X81235524Y-93624381D01*
X80587905Y-93624381D01*
X81387905Y-92824381D02*
X81387905Y-93281524D01*
X81387905Y-93052953D02*
X80587905Y-93052953D01*
X80702190Y-93129143D01*
X80778381Y-93205334D01*
X80816476Y-93281524D01*
M02*
