G04 #@! TF.FileFunction,Soldermask,Top*
%FSLAX46Y46*%
G04 Gerber Fmt 4.6, Leading zero omitted, Abs format (unit mm)*
G04 Created by KiCad (PCBNEW 4.0.6) date Monday, August 21, 2017 'PMt' 12:57:47 PM*
%MOMM*%
%LPD*%
G01*
G04 APERTURE LIST*
%ADD10C,0.100000*%
%ADD11C,2.499360*%
%ADD12R,1.000000X1.250000*%
%ADD13R,1.250000X1.000000*%
%ADD14R,1.800000X1.800000*%
%ADD15C,1.800000*%
%ADD16R,2.000000X1.100000*%
%ADD17O,1.727200X1.727200*%
%ADD18R,1.727200X1.727200*%
%ADD19R,1.700000X1.700000*%
%ADD20O,1.700000X1.700000*%
%ADD21R,0.700000X1.300000*%
%ADD22C,4.000000*%
%ADD23R,2.750000X1.000000*%
%ADD24R,1.000000X2.750000*%
%ADD25R,0.900000X0.800000*%
%ADD26R,2.000000X3.800000*%
%ADD27R,2.000000X1.500000*%
G04 APERTURE END LIST*
D10*
D11*
X78740000Y-114935000D03*
X78740000Y-125095000D03*
D12*
X83804000Y-88900000D03*
X81804000Y-88900000D03*
D13*
X84328000Y-77486000D03*
X84328000Y-79486000D03*
D14*
X66802000Y-102997000D03*
D15*
X64262000Y-102997000D03*
D14*
X66802000Y-118237000D03*
D15*
X64262000Y-118237000D03*
D14*
X66802000Y-113157000D03*
D15*
X64262000Y-113157000D03*
D14*
X66802000Y-123317000D03*
D15*
X64262000Y-123317000D03*
D14*
X66802000Y-108077000D03*
D15*
X64262000Y-108077000D03*
D16*
X68466000Y-80850000D03*
X68466000Y-82550000D03*
X68466000Y-84250000D03*
X73266000Y-84250000D03*
X73266000Y-82550000D03*
X73266000Y-80850000D03*
D17*
X54610000Y-73660000D03*
X52070000Y-74930000D03*
X54610000Y-76200000D03*
X52070000Y-77470000D03*
X54610000Y-78740000D03*
X52070000Y-80010000D03*
X54610000Y-81280000D03*
X52070000Y-82550000D03*
X54610000Y-83820000D03*
X52070000Y-85090000D03*
X54610000Y-86360000D03*
X52070000Y-87630000D03*
X54610000Y-88900000D03*
X52070000Y-90170000D03*
X54610000Y-91440000D03*
X52070000Y-92710000D03*
X54610000Y-93980000D03*
X52070000Y-95250000D03*
X49530000Y-96520000D03*
X49530000Y-93980000D03*
X49530000Y-91440000D03*
X49530000Y-88900000D03*
X49530000Y-86360000D03*
X49530000Y-83820000D03*
X49530000Y-81280000D03*
X49530000Y-78740000D03*
X49530000Y-76200000D03*
X49530000Y-73660000D03*
X46990000Y-95250000D03*
X46990000Y-92710000D03*
X46990000Y-90170000D03*
X46990000Y-87630000D03*
X46990000Y-85090000D03*
X46990000Y-82550000D03*
X46990000Y-80010000D03*
X46990000Y-77470000D03*
X46990000Y-74930000D03*
X54610000Y-96520000D03*
X54610000Y-121920000D03*
X52070000Y-123190000D03*
X46990000Y-97790000D03*
X46990000Y-100330000D03*
X46990000Y-102870000D03*
X46990000Y-105410000D03*
X46990000Y-107950000D03*
X46990000Y-110490000D03*
X46990000Y-113030000D03*
X46990000Y-115570000D03*
X46990000Y-118110000D03*
X46990000Y-120650000D03*
X49530000Y-99060000D03*
X49530000Y-101600000D03*
X49530000Y-104140000D03*
X49530000Y-106680000D03*
X49530000Y-109220000D03*
X49530000Y-111760000D03*
X49530000Y-114300000D03*
X49530000Y-116840000D03*
X49530000Y-119380000D03*
X49530000Y-121920000D03*
D18*
X46990000Y-123190000D03*
D17*
X52070000Y-120650000D03*
X54610000Y-119380000D03*
X52070000Y-118110000D03*
X54610000Y-116840000D03*
X52070000Y-115570000D03*
X54610000Y-114300000D03*
X52070000Y-113030000D03*
X54610000Y-111760000D03*
X52070000Y-110490000D03*
X54610000Y-109220000D03*
X52070000Y-107950000D03*
X54610000Y-106680000D03*
X52070000Y-105410000D03*
X54610000Y-104140000D03*
X52070000Y-102870000D03*
X54610000Y-101600000D03*
X52070000Y-100330000D03*
X54610000Y-99060000D03*
X52070000Y-97790000D03*
D19*
X84836000Y-73152000D03*
D20*
X84836000Y-70612000D03*
D21*
X61402000Y-102997000D03*
X59502000Y-102997000D03*
X61402000Y-118237000D03*
X59502000Y-118237000D03*
X61402000Y-113157000D03*
X59502000Y-113157000D03*
X61402000Y-123317000D03*
X59502000Y-123317000D03*
X61402000Y-108077000D03*
X59502000Y-108077000D03*
X62926000Y-70358000D03*
X61026000Y-70358000D03*
X62926000Y-72263000D03*
X61026000Y-72263000D03*
X62926000Y-74168000D03*
X61026000Y-74168000D03*
X61026000Y-75946000D03*
X62926000Y-75946000D03*
X80706000Y-74168000D03*
X78806000Y-74168000D03*
X80706000Y-70612000D03*
X78806000Y-70612000D03*
X80706000Y-75946000D03*
X78806000Y-75946000D03*
X80706000Y-72390000D03*
X78806000Y-72390000D03*
D15*
X85090000Y-107235000D03*
X85090000Y-104735000D03*
X85090000Y-102235000D03*
D22*
X78090000Y-109135000D03*
X78090000Y-100335000D03*
D23*
X67986000Y-75660000D03*
X73746000Y-75660000D03*
X73746000Y-71660000D03*
X67986000Y-71660000D03*
D24*
X63976000Y-85430000D03*
X63976000Y-79670000D03*
X59976000Y-79670000D03*
X59976000Y-85430000D03*
X77756000Y-79670000D03*
X77756000Y-85430000D03*
X81756000Y-85430000D03*
X81756000Y-79670000D03*
D23*
X73746000Y-89440000D03*
X67986000Y-89440000D03*
X67986000Y-93440000D03*
X73746000Y-93440000D03*
D25*
X69866000Y-112080000D03*
X69866000Y-113980000D03*
X71866000Y-113030000D03*
D26*
X77876000Y-93472000D03*
D27*
X84176000Y-93472000D03*
X84176000Y-91172000D03*
X84176000Y-95772000D03*
M02*
