G04 #@! TF.FileFunction,Copper,L2,Bot,Signal*
%FSLAX46Y46*%
G04 Gerber Fmt 4.6, Leading zero omitted, Abs format (unit mm)*
G04 Created by KiCad (PCBNEW 4.0.6) date 2017 August 12, Saturday 01:15:01*
%MOMM*%
%LPD*%
G01*
G04 APERTURE LIST*
%ADD10C,0.100000*%
%ADD11C,2.499360*%
%ADD12R,1.800000X1.800000*%
%ADD13C,1.800000*%
%ADD14O,1.727200X1.727200*%
%ADD15R,1.727200X1.727200*%
%ADD16C,4.000000*%
%ADD17R,1.700000X1.700000*%
%ADD18O,1.700000X1.700000*%
%ADD19C,0.600000*%
%ADD20C,0.250000*%
%ADD21C,0.254000*%
G04 APERTURE END LIST*
D10*
D11*
X78740000Y-114935000D03*
X78740000Y-125095000D03*
D12*
X66802000Y-102997000D03*
D13*
X64262000Y-102997000D03*
D12*
X66802000Y-118237000D03*
D13*
X64262000Y-118237000D03*
D12*
X66802000Y-113157000D03*
D13*
X64262000Y-113157000D03*
D12*
X66802000Y-123317000D03*
D13*
X64262000Y-123317000D03*
D12*
X66802000Y-108077000D03*
D13*
X64262000Y-108077000D03*
D14*
X54610000Y-73660000D03*
X52070000Y-74930000D03*
X54610000Y-76200000D03*
X52070000Y-77470000D03*
X54610000Y-78740000D03*
X52070000Y-80010000D03*
X54610000Y-81280000D03*
X52070000Y-82550000D03*
X54610000Y-83820000D03*
X52070000Y-85090000D03*
X54610000Y-86360000D03*
X52070000Y-87630000D03*
X54610000Y-88900000D03*
X52070000Y-90170000D03*
X54610000Y-91440000D03*
X52070000Y-92710000D03*
X54610000Y-93980000D03*
X52070000Y-95250000D03*
X49530000Y-96520000D03*
X49530000Y-93980000D03*
X49530000Y-91440000D03*
X49530000Y-88900000D03*
X49530000Y-86360000D03*
X49530000Y-83820000D03*
X49530000Y-81280000D03*
X49530000Y-78740000D03*
X49530000Y-76200000D03*
X49530000Y-73660000D03*
X46990000Y-95250000D03*
X46990000Y-92710000D03*
X46990000Y-90170000D03*
X46990000Y-87630000D03*
X46990000Y-85090000D03*
X46990000Y-82550000D03*
X46990000Y-80010000D03*
X46990000Y-77470000D03*
X46990000Y-74930000D03*
X54610000Y-96520000D03*
X54610000Y-121920000D03*
X52070000Y-123190000D03*
X46990000Y-97790000D03*
X46990000Y-100330000D03*
X46990000Y-102870000D03*
X46990000Y-105410000D03*
X46990000Y-107950000D03*
X46990000Y-110490000D03*
X46990000Y-113030000D03*
X46990000Y-115570000D03*
X46990000Y-118110000D03*
X46990000Y-120650000D03*
X49530000Y-99060000D03*
X49530000Y-101600000D03*
X49530000Y-104140000D03*
X49530000Y-106680000D03*
X49530000Y-109220000D03*
X49530000Y-111760000D03*
X49530000Y-114300000D03*
X49530000Y-116840000D03*
X49530000Y-119380000D03*
X49530000Y-121920000D03*
D15*
X46990000Y-123190000D03*
D14*
X52070000Y-120650000D03*
X54610000Y-119380000D03*
X52070000Y-118110000D03*
X54610000Y-116840000D03*
X52070000Y-115570000D03*
X54610000Y-114300000D03*
X52070000Y-113030000D03*
X54610000Y-111760000D03*
X52070000Y-110490000D03*
X54610000Y-109220000D03*
X52070000Y-107950000D03*
X54610000Y-106680000D03*
X52070000Y-105410000D03*
X54610000Y-104140000D03*
X52070000Y-102870000D03*
X54610000Y-101600000D03*
X52070000Y-100330000D03*
X54610000Y-99060000D03*
X52070000Y-97790000D03*
D13*
X85090000Y-107235000D03*
X85090000Y-104735000D03*
X85090000Y-102235000D03*
D16*
X78090000Y-109135000D03*
X78090000Y-100335000D03*
D17*
X84836000Y-73152000D03*
D18*
X84836000Y-70612000D03*
D19*
X82550000Y-90678000D03*
X83058000Y-78740000D03*
X82804000Y-103378000D03*
X82550000Y-98806000D03*
X67564000Y-110744000D03*
X66040000Y-110744000D03*
X57150000Y-110490000D03*
X70866000Y-113030000D03*
X60198000Y-124714000D03*
X54864000Y-124714000D03*
X82804000Y-77724000D03*
X76200000Y-71628000D03*
X65786000Y-71882000D03*
X67818000Y-85344000D03*
X61976000Y-85344000D03*
X48260000Y-95758000D03*
X47244000Y-125476000D03*
X55372000Y-125476000D03*
X58420000Y-125476000D03*
X44958000Y-72390000D03*
X45212000Y-81788000D03*
X47498000Y-73152000D03*
X47498000Y-70358000D03*
X83566000Y-101092000D03*
X60198000Y-76962000D03*
X59944000Y-74930000D03*
X46736000Y-126238000D03*
X55626000Y-126238000D03*
X57658000Y-126238000D03*
X56896000Y-127000000D03*
X54610000Y-127000000D03*
X76454000Y-74422000D03*
X76454000Y-76454000D03*
X56134000Y-105410000D03*
X68072000Y-76962000D03*
X66548000Y-80264000D03*
X57150000Y-93472000D03*
X77470000Y-87630000D03*
X75692000Y-87884000D03*
X56388000Y-95758000D03*
X56388000Y-100076000D03*
X57912000Y-91440000D03*
X56134000Y-107950000D03*
X63500000Y-77216000D03*
X64008000Y-70104000D03*
X68326000Y-110236000D03*
X58674000Y-89408000D03*
D20*
X82550000Y-90678000D02*
X83058000Y-90170000D01*
X83058000Y-90170000D02*
X83058000Y-78740000D01*
X82804000Y-103378000D02*
X82550000Y-103124000D01*
X82550000Y-103124000D02*
X82550000Y-98806000D01*
X49530000Y-106680000D02*
X49530000Y-107442000D01*
X49530000Y-107442000D02*
X51308000Y-109220000D01*
X66040000Y-110744000D02*
X67564000Y-110744000D01*
X53848000Y-110490000D02*
X57150000Y-110490000D01*
X52578000Y-109220000D02*
X53848000Y-110490000D01*
X51308000Y-109220000D02*
X52578000Y-109220000D01*
X66802000Y-113157000D02*
X70739000Y-113157000D01*
X70739000Y-113157000D02*
X70866000Y-113030000D01*
X84836000Y-70612000D02*
X83820000Y-70612000D01*
X82804000Y-71628000D02*
X82804000Y-72644000D01*
X83820000Y-70612000D02*
X82804000Y-71628000D01*
X54864000Y-124714000D02*
X60198000Y-124714000D01*
X82804000Y-72644000D02*
X82804000Y-77724000D01*
X81788000Y-71628000D02*
X82804000Y-72644000D01*
X76200000Y-71628000D02*
X81788000Y-71628000D01*
X67818000Y-85344000D02*
X67056000Y-85344000D01*
X65786000Y-84074000D02*
X65786000Y-71882000D01*
X67056000Y-85344000D02*
X65786000Y-84074000D01*
X61976000Y-85344000D02*
X67818000Y-85344000D01*
X48260000Y-95758000D02*
X47498000Y-96520000D01*
X47498000Y-96520000D02*
X46424002Y-96520000D01*
X46424002Y-96520000D02*
X45466000Y-97478002D01*
X45466000Y-97478002D02*
X45466000Y-124714000D01*
X45466000Y-124714000D02*
X46228000Y-125476000D01*
X46228000Y-125476000D02*
X47244000Y-125476000D01*
X55372000Y-125476000D02*
X58420000Y-125476000D01*
X44958000Y-81534000D02*
X44958000Y-72390000D01*
X45212000Y-81788000D02*
X44958000Y-81534000D01*
X47498000Y-73152000D02*
X47498000Y-70358000D01*
X85090000Y-104735000D02*
X84161000Y-104735000D01*
X83566000Y-104140000D02*
X84161000Y-104735000D01*
X83566000Y-101092000D02*
X83566000Y-104140000D01*
X60198000Y-76962000D02*
X59944000Y-76708000D01*
X59944000Y-76708000D02*
X59944000Y-74930000D01*
X46990000Y-95250000D02*
X46736000Y-95250000D01*
X46736000Y-95250000D02*
X44958000Y-97028000D01*
X44958000Y-97028000D02*
X44958000Y-125222000D01*
X44958000Y-125222000D02*
X45974000Y-126238000D01*
X45974000Y-126238000D02*
X46736000Y-126238000D01*
X55626000Y-126238000D02*
X57658000Y-126238000D01*
X54610000Y-127000000D02*
X56896000Y-127000000D01*
X76454000Y-76454000D02*
X76454000Y-74422000D01*
X68072000Y-78740000D02*
X68072000Y-76962000D01*
X66548000Y-80264000D02*
X68072000Y-78740000D01*
X57150000Y-100330000D02*
X57150000Y-93472000D01*
X56388000Y-101092000D02*
X57150000Y-100330000D01*
X56388000Y-105156000D02*
X56388000Y-101092000D01*
X56134000Y-105410000D02*
X56388000Y-105156000D01*
X75946000Y-87630000D02*
X77470000Y-87630000D01*
X75692000Y-87884000D02*
X75946000Y-87630000D01*
X56388000Y-100076000D02*
X56388000Y-95758000D01*
X57912000Y-100204398D02*
X57912000Y-91440000D01*
X56896000Y-101220398D02*
X57912000Y-100204398D01*
X56896000Y-107188000D02*
X56896000Y-101220398D01*
X56134000Y-107950000D02*
X56896000Y-107188000D01*
X63500000Y-77216000D02*
X63500000Y-70358000D01*
X63500000Y-70358000D02*
X63754000Y-70104000D01*
X63754000Y-70104000D02*
X64008000Y-70104000D01*
X68326000Y-110236000D02*
X67818000Y-109728000D01*
X67818000Y-109728000D02*
X58674000Y-109728000D01*
X58674000Y-109728000D02*
X57658000Y-108712000D01*
X57658000Y-108712000D02*
X57658000Y-101600000D01*
X57658000Y-101600000D02*
X58674000Y-100584000D01*
X58674000Y-100584000D02*
X58674000Y-89408000D01*
D21*
G36*
X63479057Y-69310883D02*
X63235638Y-69553877D01*
X63216599Y-69566599D01*
X62962599Y-69820599D01*
X62797852Y-70067161D01*
X62740000Y-70358000D01*
X62740000Y-76653537D01*
X62707808Y-76685673D01*
X62565162Y-77029201D01*
X62564838Y-77401167D01*
X62706883Y-77744943D01*
X62969673Y-78008192D01*
X63313201Y-78150838D01*
X63685167Y-78151162D01*
X64028943Y-78009117D01*
X64292192Y-77746327D01*
X64434838Y-77402799D01*
X64435162Y-77030833D01*
X64293117Y-76687057D01*
X64260000Y-76653882D01*
X64260000Y-74607167D01*
X75518838Y-74607167D01*
X75660883Y-74950943D01*
X75694000Y-74984118D01*
X75694000Y-75891537D01*
X75661808Y-75923673D01*
X75519162Y-76267201D01*
X75518838Y-76639167D01*
X75660883Y-76982943D01*
X75923673Y-77246192D01*
X76267201Y-77388838D01*
X76639167Y-77389162D01*
X76982943Y-77247117D01*
X77246192Y-76984327D01*
X77388838Y-76640799D01*
X77389162Y-76268833D01*
X77247117Y-75925057D01*
X77214000Y-75891882D01*
X77214000Y-74984463D01*
X77246192Y-74952327D01*
X77388838Y-74608799D01*
X77389162Y-74236833D01*
X77247117Y-73893057D01*
X76984327Y-73629808D01*
X76640799Y-73487162D01*
X76268833Y-73486838D01*
X75925057Y-73628883D01*
X75661808Y-73891673D01*
X75519162Y-74235201D01*
X75518838Y-74607167D01*
X64260000Y-74607167D01*
X64260000Y-71011547D01*
X64536943Y-70897117D01*
X64800192Y-70634327D01*
X64942838Y-70290799D01*
X64943162Y-69918833D01*
X64801117Y-69575057D01*
X64538327Y-69311808D01*
X64485808Y-69290000D01*
X84224680Y-69290000D01*
X83954642Y-69416817D01*
X83564355Y-69845076D01*
X83394524Y-70255110D01*
X83515845Y-70485000D01*
X84709000Y-70485000D01*
X84709000Y-70465000D01*
X84963000Y-70465000D01*
X84963000Y-70485000D01*
X84983000Y-70485000D01*
X84983000Y-70739000D01*
X84963000Y-70739000D01*
X84963000Y-70759000D01*
X84709000Y-70759000D01*
X84709000Y-70739000D01*
X83515845Y-70739000D01*
X83394524Y-70968890D01*
X83564355Y-71378924D01*
X83840501Y-71681937D01*
X83750683Y-71698838D01*
X83534559Y-71837910D01*
X83389569Y-72050110D01*
X83338560Y-72302000D01*
X83338560Y-74002000D01*
X83382838Y-74237317D01*
X83521910Y-74453441D01*
X83734110Y-74598431D01*
X83986000Y-74649440D01*
X85686000Y-74649440D01*
X85921317Y-74605162D01*
X86137441Y-74466090D01*
X86282431Y-74253890D01*
X86285000Y-74241204D01*
X86285000Y-101373134D01*
X86170159Y-101334446D01*
X85269605Y-102235000D01*
X86170159Y-103135554D01*
X86285000Y-103096866D01*
X86285000Y-103759374D01*
X85960643Y-103434449D01*
X85951628Y-103430706D01*
X85990554Y-103315159D01*
X85090000Y-102414605D01*
X85075858Y-102428748D01*
X84896253Y-102249143D01*
X84910395Y-102235000D01*
X84896253Y-102220858D01*
X85075858Y-102041253D01*
X85090000Y-102055395D01*
X85990554Y-101154841D01*
X85904148Y-100898357D01*
X85330664Y-100688542D01*
X84720540Y-100714161D01*
X84465245Y-100819908D01*
X84359117Y-100563057D01*
X84096327Y-100299808D01*
X83752799Y-100157162D01*
X83380833Y-100156838D01*
X83310000Y-100186106D01*
X83310000Y-99368463D01*
X83342192Y-99336327D01*
X83484838Y-98992799D01*
X83485162Y-98620833D01*
X83343117Y-98277057D01*
X83080327Y-98013808D01*
X82736799Y-97871162D01*
X82364833Y-97870838D01*
X82021057Y-98012883D01*
X81757808Y-98275673D01*
X81615162Y-98619201D01*
X81614838Y-98991167D01*
X81756883Y-99334943D01*
X81790000Y-99368118D01*
X81790000Y-103124000D01*
X81847852Y-103414839D01*
X81868940Y-103446399D01*
X81868838Y-103563167D01*
X82010883Y-103906943D01*
X82273673Y-104170192D01*
X82617201Y-104312838D01*
X82840419Y-104313032D01*
X82863852Y-104430839D01*
X83028599Y-104677401D01*
X83623599Y-105272401D01*
X83661696Y-105297857D01*
X83787932Y-105603371D01*
X84169182Y-105985288D01*
X83789449Y-106364357D01*
X83555267Y-106928330D01*
X83554735Y-107538991D01*
X83787932Y-108103371D01*
X84219357Y-108535551D01*
X84783330Y-108769733D01*
X85393991Y-108770265D01*
X85958371Y-108537068D01*
X86285000Y-108211010D01*
X86285000Y-127560000D01*
X57658467Y-127560000D01*
X57688192Y-127530327D01*
X57830838Y-127186799D01*
X57830850Y-127173151D01*
X57843167Y-127173162D01*
X58186943Y-127031117D01*
X58450192Y-126768327D01*
X58592838Y-126424799D01*
X58592850Y-126411151D01*
X58605167Y-126411162D01*
X58948943Y-126269117D01*
X59212192Y-126006327D01*
X59354838Y-125662799D01*
X59355007Y-125468241D01*
X76854994Y-125468241D01*
X77141314Y-126161191D01*
X77671021Y-126691822D01*
X78363469Y-126979352D01*
X79113241Y-126980006D01*
X79806191Y-126693686D01*
X80336822Y-126163979D01*
X80624352Y-125471531D01*
X80625006Y-124721759D01*
X80338686Y-124028809D01*
X79808979Y-123498178D01*
X79116531Y-123210648D01*
X78366759Y-123209994D01*
X77673809Y-123496314D01*
X77143178Y-124026021D01*
X76855648Y-124718469D01*
X76854994Y-125468241D01*
X59355007Y-125468241D01*
X59355162Y-125290833D01*
X59213117Y-124947057D01*
X58950327Y-124683808D01*
X58606799Y-124541162D01*
X58234833Y-124540838D01*
X57891057Y-124682883D01*
X57857882Y-124716000D01*
X55934463Y-124716000D01*
X55902327Y-124683808D01*
X55558799Y-124541162D01*
X55186833Y-124540838D01*
X54843057Y-124682883D01*
X54579808Y-124945673D01*
X54437162Y-125289201D01*
X54436838Y-125661167D01*
X54578883Y-126004943D01*
X54638860Y-126065024D01*
X54424833Y-126064838D01*
X54081057Y-126206883D01*
X53817808Y-126469673D01*
X53675162Y-126813201D01*
X53674838Y-127185167D01*
X53816883Y-127528943D01*
X53847886Y-127560000D01*
X45160000Y-127560000D01*
X45160000Y-126498802D01*
X45436599Y-126775401D01*
X45683161Y-126940148D01*
X45974000Y-126998000D01*
X46173537Y-126998000D01*
X46205673Y-127030192D01*
X46549201Y-127172838D01*
X46921167Y-127173162D01*
X47264943Y-127031117D01*
X47528192Y-126768327D01*
X47670838Y-126424799D01*
X47670937Y-126311265D01*
X47772943Y-126269117D01*
X48036192Y-126006327D01*
X48178838Y-125662799D01*
X48179162Y-125290833D01*
X48037117Y-124947057D01*
X47779111Y-124688600D01*
X47979910Y-124688600D01*
X48213299Y-124591927D01*
X48391927Y-124413298D01*
X48488600Y-124179909D01*
X48488600Y-123475750D01*
X48329850Y-123317000D01*
X47117000Y-123317000D01*
X47117000Y-123337000D01*
X46863000Y-123337000D01*
X46863000Y-123317000D01*
X46843000Y-123317000D01*
X46843000Y-123063000D01*
X46863000Y-123063000D01*
X46863000Y-120777000D01*
X46843000Y-120777000D01*
X46843000Y-120523000D01*
X46863000Y-120523000D01*
X46863000Y-118237000D01*
X46843000Y-118237000D01*
X46843000Y-117983000D01*
X46863000Y-117983000D01*
X46863000Y-117963000D01*
X47117000Y-117963000D01*
X47117000Y-117983000D01*
X48324469Y-117983000D01*
X48413724Y-117811136D01*
X48741152Y-118110000D01*
X48413724Y-118408864D01*
X48324469Y-118237000D01*
X47117000Y-118237000D01*
X47117000Y-120523000D01*
X48324469Y-120523000D01*
X48413724Y-120351136D01*
X48741152Y-120650000D01*
X48413724Y-120948864D01*
X48324469Y-120777000D01*
X47117000Y-120777000D01*
X47117000Y-123063000D01*
X48329850Y-123063000D01*
X48459726Y-122933124D01*
X48755053Y-123202688D01*
X49170974Y-123374958D01*
X49403000Y-123253817D01*
X49403000Y-122047000D01*
X49383000Y-122047000D01*
X49383000Y-121793000D01*
X49403000Y-121793000D01*
X49403000Y-119507000D01*
X48195531Y-119507000D01*
X48106276Y-119678864D01*
X47778848Y-119380000D01*
X48106276Y-119081136D01*
X48195531Y-119253000D01*
X49403000Y-119253000D01*
X49403000Y-116967000D01*
X48195531Y-116967000D01*
X48106276Y-117138864D01*
X47778839Y-116839992D01*
X48049670Y-116659029D01*
X48115971Y-116559803D01*
X48195531Y-116713000D01*
X49403000Y-116713000D01*
X49403000Y-116693000D01*
X49657000Y-116693000D01*
X49657000Y-116713000D01*
X50864469Y-116713000D01*
X50944029Y-116559803D01*
X51010330Y-116659029D01*
X51281172Y-116840000D01*
X51010330Y-117020971D01*
X50944029Y-117120197D01*
X50864469Y-116967000D01*
X49657000Y-116967000D01*
X49657000Y-119253000D01*
X50864469Y-119253000D01*
X50944029Y-119099803D01*
X51010330Y-119199029D01*
X51281172Y-119380000D01*
X51010330Y-119560971D01*
X50944029Y-119660197D01*
X50864469Y-119507000D01*
X49657000Y-119507000D01*
X49657000Y-121793000D01*
X50864469Y-121793000D01*
X50944029Y-121639803D01*
X51010330Y-121739029D01*
X51281172Y-121920000D01*
X51010330Y-122100971D01*
X50944029Y-122200197D01*
X50864469Y-122047000D01*
X49657000Y-122047000D01*
X49657000Y-123253817D01*
X49889026Y-123374958D01*
X50304947Y-123202688D01*
X50620290Y-122914855D01*
X50571400Y-123160641D01*
X50571400Y-123219359D01*
X50685474Y-123792848D01*
X51010330Y-124279029D01*
X51496511Y-124603885D01*
X52070000Y-124717959D01*
X52643489Y-124603885D01*
X53129670Y-124279029D01*
X53454526Y-123792848D01*
X53488710Y-123620991D01*
X62726735Y-123620991D01*
X62959932Y-124185371D01*
X63391357Y-124617551D01*
X63955330Y-124851733D01*
X64565991Y-124852265D01*
X65130371Y-124619068D01*
X65307841Y-124441908D01*
X65363673Y-124576699D01*
X65542302Y-124755327D01*
X65775691Y-124852000D01*
X66516250Y-124852000D01*
X66675000Y-124693250D01*
X66675000Y-123444000D01*
X66929000Y-123444000D01*
X66929000Y-124693250D01*
X67087750Y-124852000D01*
X67828309Y-124852000D01*
X68061698Y-124755327D01*
X68240327Y-124576699D01*
X68337000Y-124343310D01*
X68337000Y-123602750D01*
X68178250Y-123444000D01*
X66929000Y-123444000D01*
X66675000Y-123444000D01*
X66655000Y-123444000D01*
X66655000Y-123190000D01*
X66675000Y-123190000D01*
X66675000Y-121940750D01*
X66929000Y-121940750D01*
X66929000Y-123190000D01*
X68178250Y-123190000D01*
X68337000Y-123031250D01*
X68337000Y-122290690D01*
X68240327Y-122057301D01*
X68061698Y-121878673D01*
X67828309Y-121782000D01*
X67087750Y-121782000D01*
X66929000Y-121940750D01*
X66675000Y-121940750D01*
X66516250Y-121782000D01*
X65775691Y-121782000D01*
X65542302Y-121878673D01*
X65363673Y-122057301D01*
X65307881Y-122191994D01*
X65132643Y-122016449D01*
X64568670Y-121782267D01*
X63958009Y-121781735D01*
X63393629Y-122014932D01*
X62961449Y-122446357D01*
X62727267Y-123010330D01*
X62726735Y-123620991D01*
X53488710Y-123620991D01*
X53568600Y-123219359D01*
X53568600Y-123160641D01*
X53533404Y-122983697D01*
X53550330Y-123009029D01*
X54036511Y-123333885D01*
X54610000Y-123447959D01*
X55183489Y-123333885D01*
X55669670Y-123009029D01*
X55994526Y-122522848D01*
X56108600Y-121949359D01*
X56108600Y-121890641D01*
X55994526Y-121317152D01*
X55669670Y-120830971D01*
X55398828Y-120650000D01*
X55669670Y-120469029D01*
X55994526Y-119982848D01*
X56108600Y-119409359D01*
X56108600Y-119350641D01*
X55994526Y-118777152D01*
X55836729Y-118540991D01*
X62726735Y-118540991D01*
X62959932Y-119105371D01*
X63391357Y-119537551D01*
X63955330Y-119771733D01*
X64565991Y-119772265D01*
X65130371Y-119539068D01*
X65307841Y-119361908D01*
X65363673Y-119496699D01*
X65542302Y-119675327D01*
X65775691Y-119772000D01*
X66516250Y-119772000D01*
X66675000Y-119613250D01*
X66675000Y-118364000D01*
X66929000Y-118364000D01*
X66929000Y-119613250D01*
X67087750Y-119772000D01*
X67828309Y-119772000D01*
X68061698Y-119675327D01*
X68240327Y-119496699D01*
X68337000Y-119263310D01*
X68337000Y-118522750D01*
X68178250Y-118364000D01*
X66929000Y-118364000D01*
X66675000Y-118364000D01*
X66655000Y-118364000D01*
X66655000Y-118110000D01*
X66675000Y-118110000D01*
X66675000Y-116860750D01*
X66929000Y-116860750D01*
X66929000Y-118110000D01*
X68178250Y-118110000D01*
X68337000Y-117951250D01*
X68337000Y-117210690D01*
X68240327Y-116977301D01*
X68061698Y-116798673D01*
X67828309Y-116702000D01*
X67087750Y-116702000D01*
X66929000Y-116860750D01*
X66675000Y-116860750D01*
X66516250Y-116702000D01*
X65775691Y-116702000D01*
X65542302Y-116798673D01*
X65363673Y-116977301D01*
X65307881Y-117111994D01*
X65132643Y-116936449D01*
X64568670Y-116702267D01*
X63958009Y-116701735D01*
X63393629Y-116934932D01*
X62961449Y-117366357D01*
X62727267Y-117930330D01*
X62726735Y-118540991D01*
X55836729Y-118540991D01*
X55669670Y-118290971D01*
X55398828Y-118110000D01*
X55669670Y-117929029D01*
X55994526Y-117442848D01*
X56108600Y-116869359D01*
X56108600Y-116810641D01*
X55994526Y-116237152D01*
X55669670Y-115750971D01*
X55398828Y-115570000D01*
X55669670Y-115389029D01*
X55723650Y-115308241D01*
X76854994Y-115308241D01*
X77141314Y-116001191D01*
X77671021Y-116531822D01*
X78363469Y-116819352D01*
X79113241Y-116820006D01*
X79806191Y-116533686D01*
X80336822Y-116003979D01*
X80624352Y-115311531D01*
X80625006Y-114561759D01*
X80338686Y-113868809D01*
X79808979Y-113338178D01*
X79116531Y-113050648D01*
X78366759Y-113049994D01*
X77673809Y-113336314D01*
X77143178Y-113866021D01*
X76855648Y-114558469D01*
X76854994Y-115308241D01*
X55723650Y-115308241D01*
X55994526Y-114902848D01*
X56108600Y-114329359D01*
X56108600Y-114270641D01*
X55994526Y-113697152D01*
X55669670Y-113210971D01*
X55398828Y-113030000D01*
X55669670Y-112849029D01*
X55994526Y-112362848D01*
X56108600Y-111789359D01*
X56108600Y-111730641D01*
X56012995Y-111250000D01*
X56587537Y-111250000D01*
X56619673Y-111282192D01*
X56963201Y-111424838D01*
X57335167Y-111425162D01*
X57678943Y-111283117D01*
X57942192Y-111020327D01*
X58084838Y-110676799D01*
X58085162Y-110304833D01*
X58021178Y-110149980D01*
X58136599Y-110265401D01*
X58383161Y-110430148D01*
X58674000Y-110488000D01*
X65133897Y-110488000D01*
X65105162Y-110557201D01*
X65104838Y-110929167D01*
X65246883Y-111272943D01*
X65509673Y-111536192D01*
X65745969Y-111634311D01*
X65542302Y-111718673D01*
X65363673Y-111897301D01*
X65307881Y-112031994D01*
X65132643Y-111856449D01*
X64568670Y-111622267D01*
X63958009Y-111621735D01*
X63393629Y-111854932D01*
X62961449Y-112286357D01*
X62727267Y-112850330D01*
X62726735Y-113460991D01*
X62959932Y-114025371D01*
X63391357Y-114457551D01*
X63955330Y-114691733D01*
X64565991Y-114692265D01*
X65130371Y-114459068D01*
X65307841Y-114281908D01*
X65363673Y-114416699D01*
X65542302Y-114595327D01*
X65775691Y-114692000D01*
X66516250Y-114692000D01*
X66675000Y-114533250D01*
X66675000Y-113284000D01*
X66929000Y-113284000D01*
X66929000Y-114533250D01*
X67087750Y-114692000D01*
X67828309Y-114692000D01*
X68061698Y-114595327D01*
X68240327Y-114416699D01*
X68337000Y-114183310D01*
X68337000Y-113442750D01*
X68178250Y-113284000D01*
X66929000Y-113284000D01*
X66675000Y-113284000D01*
X66655000Y-113284000D01*
X66655000Y-113030000D01*
X66675000Y-113030000D01*
X66675000Y-111780750D01*
X66516250Y-111622000D01*
X66363510Y-111622000D01*
X66568943Y-111537117D01*
X66602118Y-111504000D01*
X67001537Y-111504000D01*
X67033673Y-111536192D01*
X67240321Y-111622000D01*
X67087750Y-111622000D01*
X66929000Y-111780750D01*
X66929000Y-113030000D01*
X68178250Y-113030000D01*
X68337000Y-112871250D01*
X68337000Y-112130690D01*
X68240327Y-111897301D01*
X68061698Y-111718673D01*
X67857873Y-111634246D01*
X68092943Y-111537117D01*
X68356192Y-111274327D01*
X68399071Y-111171064D01*
X68511167Y-111171162D01*
X68854943Y-111029117D01*
X69118192Y-110766327D01*
X69260838Y-110422799D01*
X69261162Y-110050833D01*
X69119117Y-109707057D01*
X69068982Y-109656834D01*
X75454543Y-109656834D01*
X75854853Y-110625658D01*
X76595443Y-111367542D01*
X77563567Y-111769542D01*
X78611834Y-111770457D01*
X79580658Y-111370147D01*
X80322542Y-110629557D01*
X80724542Y-109661433D01*
X80725457Y-108613166D01*
X80325147Y-107644342D01*
X79584557Y-106902458D01*
X78616433Y-106500458D01*
X77568166Y-106499543D01*
X76599342Y-106899853D01*
X75857458Y-107640443D01*
X75455458Y-108608567D01*
X75454543Y-109656834D01*
X69068982Y-109656834D01*
X68856327Y-109443808D01*
X68512799Y-109301162D01*
X68465923Y-109301121D01*
X68355401Y-109190599D01*
X68312670Y-109162047D01*
X68337000Y-109103310D01*
X68337000Y-108362750D01*
X68178250Y-108204000D01*
X66929000Y-108204000D01*
X66929000Y-108224000D01*
X66675000Y-108224000D01*
X66675000Y-108204000D01*
X66655000Y-108204000D01*
X66655000Y-107950000D01*
X66675000Y-107950000D01*
X66675000Y-106700750D01*
X66929000Y-106700750D01*
X66929000Y-107950000D01*
X68178250Y-107950000D01*
X68337000Y-107791250D01*
X68337000Y-107050690D01*
X68240327Y-106817301D01*
X68061698Y-106638673D01*
X67828309Y-106542000D01*
X67087750Y-106542000D01*
X66929000Y-106700750D01*
X66675000Y-106700750D01*
X66516250Y-106542000D01*
X65775691Y-106542000D01*
X65542302Y-106638673D01*
X65363673Y-106817301D01*
X65307881Y-106951994D01*
X65132643Y-106776449D01*
X64568670Y-106542267D01*
X63958009Y-106541735D01*
X63393629Y-106774932D01*
X62961449Y-107206357D01*
X62727267Y-107770330D01*
X62726735Y-108380991D01*
X62959932Y-108945371D01*
X62982521Y-108968000D01*
X58988802Y-108968000D01*
X58418000Y-108397198D01*
X58418000Y-103300991D01*
X62726735Y-103300991D01*
X62959932Y-103865371D01*
X63391357Y-104297551D01*
X63955330Y-104531733D01*
X64565991Y-104532265D01*
X65130371Y-104299068D01*
X65307841Y-104121908D01*
X65363673Y-104256699D01*
X65542302Y-104435327D01*
X65775691Y-104532000D01*
X66516250Y-104532000D01*
X66675000Y-104373250D01*
X66675000Y-103124000D01*
X66929000Y-103124000D01*
X66929000Y-104373250D01*
X67087750Y-104532000D01*
X67828309Y-104532000D01*
X68061698Y-104435327D01*
X68240327Y-104256699D01*
X68337000Y-104023310D01*
X68337000Y-103282750D01*
X68178250Y-103124000D01*
X66929000Y-103124000D01*
X66675000Y-103124000D01*
X66655000Y-103124000D01*
X66655000Y-102870000D01*
X66675000Y-102870000D01*
X66675000Y-101620750D01*
X66929000Y-101620750D01*
X66929000Y-102870000D01*
X68178250Y-102870000D01*
X68337000Y-102711250D01*
X68337000Y-101970690D01*
X68240327Y-101737301D01*
X68061698Y-101558673D01*
X67828309Y-101462000D01*
X67087750Y-101462000D01*
X66929000Y-101620750D01*
X66675000Y-101620750D01*
X66516250Y-101462000D01*
X65775691Y-101462000D01*
X65542302Y-101558673D01*
X65363673Y-101737301D01*
X65307881Y-101871994D01*
X65132643Y-101696449D01*
X64568670Y-101462267D01*
X63958009Y-101461735D01*
X63393629Y-101694932D01*
X62961449Y-102126357D01*
X62727267Y-102690330D01*
X62726735Y-103300991D01*
X58418000Y-103300991D01*
X58418000Y-101914802D01*
X59211401Y-101121401D01*
X59376148Y-100874839D01*
X59379729Y-100856834D01*
X75454543Y-100856834D01*
X75854853Y-101825658D01*
X76595443Y-102567542D01*
X77563567Y-102969542D01*
X78611834Y-102970457D01*
X79580658Y-102570147D01*
X80322542Y-101829557D01*
X80724542Y-100861433D01*
X80725457Y-99813166D01*
X80325147Y-98844342D01*
X79584557Y-98102458D01*
X78616433Y-97700458D01*
X77568166Y-97699543D01*
X76599342Y-98099853D01*
X75857458Y-98840443D01*
X75455458Y-99808567D01*
X75454543Y-100856834D01*
X59379729Y-100856834D01*
X59434000Y-100584000D01*
X59434000Y-90863167D01*
X81614838Y-90863167D01*
X81756883Y-91206943D01*
X82019673Y-91470192D01*
X82363201Y-91612838D01*
X82735167Y-91613162D01*
X83078943Y-91471117D01*
X83342192Y-91208327D01*
X83484838Y-90864799D01*
X83484879Y-90817923D01*
X83595401Y-90707401D01*
X83760147Y-90460840D01*
X83760148Y-90460839D01*
X83818000Y-90170000D01*
X83818000Y-79302463D01*
X83850192Y-79270327D01*
X83992838Y-78926799D01*
X83993162Y-78554833D01*
X83851117Y-78211057D01*
X83588327Y-77947808D01*
X83244799Y-77805162D01*
X82872833Y-77804838D01*
X82529057Y-77946883D01*
X82265808Y-78209673D01*
X82123162Y-78553201D01*
X82122838Y-78925167D01*
X82264883Y-79268943D01*
X82298000Y-79302118D01*
X82298000Y-89770453D01*
X82021057Y-89884883D01*
X81757808Y-90147673D01*
X81615162Y-90491201D01*
X81614838Y-90863167D01*
X59434000Y-90863167D01*
X59434000Y-89970463D01*
X59466192Y-89938327D01*
X59608838Y-89594799D01*
X59609162Y-89222833D01*
X59467117Y-88879057D01*
X59204327Y-88615808D01*
X58860799Y-88473162D01*
X58488833Y-88472838D01*
X58145057Y-88614883D01*
X57881808Y-88877673D01*
X57739162Y-89221201D01*
X57738838Y-89593167D01*
X57880883Y-89936943D01*
X57914000Y-89970118D01*
X57914000Y-90505001D01*
X57726833Y-90504838D01*
X57383057Y-90646883D01*
X57119808Y-90909673D01*
X56977162Y-91253201D01*
X56976838Y-91625167D01*
X57118883Y-91968943D01*
X57152000Y-92002118D01*
X57152000Y-92537001D01*
X56964833Y-92536838D01*
X56621057Y-92678883D01*
X56357808Y-92941673D01*
X56215162Y-93285201D01*
X56214838Y-93657167D01*
X56356883Y-94000943D01*
X56390000Y-94034118D01*
X56390000Y-94823001D01*
X56202833Y-94822838D01*
X55859057Y-94964883D01*
X55595808Y-95227673D01*
X55545768Y-95348182D01*
X55398828Y-95250000D01*
X55669670Y-95069029D01*
X55994526Y-94582848D01*
X56108600Y-94009359D01*
X56108600Y-93950641D01*
X55994526Y-93377152D01*
X55669670Y-92890971D01*
X55398828Y-92710000D01*
X55669670Y-92529029D01*
X55994526Y-92042848D01*
X56108600Y-91469359D01*
X56108600Y-91410641D01*
X55994526Y-90837152D01*
X55669670Y-90350971D01*
X55398828Y-90170000D01*
X55669670Y-89989029D01*
X55994526Y-89502848D01*
X56108600Y-88929359D01*
X56108600Y-88870641D01*
X55994526Y-88297152D01*
X55842192Y-88069167D01*
X74756838Y-88069167D01*
X74898883Y-88412943D01*
X75161673Y-88676192D01*
X75505201Y-88818838D01*
X75877167Y-88819162D01*
X76220943Y-88677117D01*
X76484192Y-88414327D01*
X76494294Y-88390000D01*
X76907537Y-88390000D01*
X76939673Y-88422192D01*
X77283201Y-88564838D01*
X77655167Y-88565162D01*
X77998943Y-88423117D01*
X78262192Y-88160327D01*
X78404838Y-87816799D01*
X78405162Y-87444833D01*
X78263117Y-87101057D01*
X78000327Y-86837808D01*
X77656799Y-86695162D01*
X77284833Y-86694838D01*
X76941057Y-86836883D01*
X76907882Y-86870000D01*
X75946000Y-86870000D01*
X75655160Y-86927852D01*
X75623600Y-86948940D01*
X75506833Y-86948838D01*
X75163057Y-87090883D01*
X74899808Y-87353673D01*
X74757162Y-87697201D01*
X74756838Y-88069167D01*
X55842192Y-88069167D01*
X55669670Y-87810971D01*
X55398828Y-87630000D01*
X55669670Y-87449029D01*
X55994526Y-86962848D01*
X56108600Y-86389359D01*
X56108600Y-86330641D01*
X55994526Y-85757152D01*
X55669670Y-85270971D01*
X55398828Y-85090000D01*
X55669670Y-84909029D01*
X55994526Y-84422848D01*
X56108600Y-83849359D01*
X56108600Y-83790641D01*
X55994526Y-83217152D01*
X55669670Y-82730971D01*
X55398828Y-82550000D01*
X55669670Y-82369029D01*
X55994526Y-81882848D01*
X56108600Y-81309359D01*
X56108600Y-81250641D01*
X55994526Y-80677152D01*
X55842192Y-80449167D01*
X65612838Y-80449167D01*
X65754883Y-80792943D01*
X66017673Y-81056192D01*
X66361201Y-81198838D01*
X66733167Y-81199162D01*
X67076943Y-81057117D01*
X67340192Y-80794327D01*
X67482838Y-80450799D01*
X67482879Y-80403923D01*
X68609401Y-79277401D01*
X68774148Y-79030840D01*
X68794843Y-78926799D01*
X68832000Y-78740000D01*
X68832000Y-77524463D01*
X68864192Y-77492327D01*
X69006838Y-77148799D01*
X69007162Y-76776833D01*
X68865117Y-76433057D01*
X68602327Y-76169808D01*
X68258799Y-76027162D01*
X67886833Y-76026838D01*
X67543057Y-76168883D01*
X67279808Y-76431673D01*
X67137162Y-76775201D01*
X67136838Y-77147167D01*
X67278883Y-77490943D01*
X67312000Y-77524118D01*
X67312000Y-78425198D01*
X66408320Y-79328878D01*
X66362833Y-79328838D01*
X66019057Y-79470883D01*
X65755808Y-79733673D01*
X65613162Y-80077201D01*
X65612838Y-80449167D01*
X55842192Y-80449167D01*
X55669670Y-80190971D01*
X55398828Y-80010000D01*
X55669670Y-79829029D01*
X55994526Y-79342848D01*
X56108600Y-78769359D01*
X56108600Y-78710641D01*
X55994526Y-78137152D01*
X55669670Y-77650971D01*
X55398828Y-77470000D01*
X55669670Y-77289029D01*
X55994526Y-76802848D01*
X56108600Y-76229359D01*
X56108600Y-76170641D01*
X55994526Y-75597152D01*
X55672474Y-75115167D01*
X59008838Y-75115167D01*
X59150883Y-75458943D01*
X59184000Y-75492118D01*
X59184000Y-76708000D01*
X59241852Y-76998839D01*
X59262940Y-77030399D01*
X59262838Y-77147167D01*
X59404883Y-77490943D01*
X59667673Y-77754192D01*
X60011201Y-77896838D01*
X60383167Y-77897162D01*
X60726943Y-77755117D01*
X60990192Y-77492327D01*
X61132838Y-77148799D01*
X61133162Y-76776833D01*
X60991117Y-76433057D01*
X60728327Y-76169808D01*
X60704000Y-76159706D01*
X60704000Y-75492463D01*
X60736192Y-75460327D01*
X60878838Y-75116799D01*
X60879162Y-74744833D01*
X60737117Y-74401057D01*
X60474327Y-74137808D01*
X60130799Y-73995162D01*
X59758833Y-73994838D01*
X59415057Y-74136883D01*
X59151808Y-74399673D01*
X59009162Y-74743201D01*
X59008838Y-75115167D01*
X55672474Y-75115167D01*
X55669670Y-75110971D01*
X55398828Y-74930000D01*
X55669670Y-74749029D01*
X55994526Y-74262848D01*
X56108600Y-73689359D01*
X56108600Y-73630641D01*
X55994526Y-73057152D01*
X55669670Y-72570971D01*
X55183489Y-72246115D01*
X54610000Y-72132041D01*
X54036511Y-72246115D01*
X53550330Y-72570971D01*
X53225474Y-73057152D01*
X53111400Y-73630641D01*
X53111400Y-73689359D01*
X53146596Y-73866303D01*
X53129670Y-73840971D01*
X52643489Y-73516115D01*
X52070000Y-73402041D01*
X51496511Y-73516115D01*
X51010330Y-73840971D01*
X50993404Y-73866303D01*
X51028600Y-73689359D01*
X51028600Y-73630641D01*
X50914526Y-73057152D01*
X50589670Y-72570971D01*
X50103489Y-72246115D01*
X49530000Y-72132041D01*
X48956511Y-72246115D01*
X48470330Y-72570971D01*
X48346296Y-72756601D01*
X48291117Y-72623057D01*
X48258000Y-72589882D01*
X48258000Y-70920463D01*
X48290192Y-70888327D01*
X48432838Y-70544799D01*
X48433162Y-70172833D01*
X48291117Y-69829057D01*
X48028327Y-69565808D01*
X47684799Y-69423162D01*
X47312833Y-69422838D01*
X46969057Y-69564883D01*
X46705808Y-69827673D01*
X46563162Y-70171201D01*
X46562838Y-70543167D01*
X46704883Y-70886943D01*
X46738000Y-70920118D01*
X46738000Y-72589537D01*
X46705808Y-72621673D01*
X46563162Y-72965201D01*
X46562838Y-73337167D01*
X46620049Y-73475629D01*
X46416511Y-73516115D01*
X45930330Y-73840971D01*
X45718000Y-74158745D01*
X45718000Y-72952463D01*
X45750192Y-72920327D01*
X45892838Y-72576799D01*
X45893162Y-72204833D01*
X45751117Y-71861057D01*
X45488327Y-71597808D01*
X45160000Y-71461474D01*
X45160000Y-69290000D01*
X63529598Y-69290000D01*
X63479057Y-69310883D01*
X63479057Y-69310883D01*
G37*
X63479057Y-69310883D02*
X63235638Y-69553877D01*
X63216599Y-69566599D01*
X62962599Y-69820599D01*
X62797852Y-70067161D01*
X62740000Y-70358000D01*
X62740000Y-76653537D01*
X62707808Y-76685673D01*
X62565162Y-77029201D01*
X62564838Y-77401167D01*
X62706883Y-77744943D01*
X62969673Y-78008192D01*
X63313201Y-78150838D01*
X63685167Y-78151162D01*
X64028943Y-78009117D01*
X64292192Y-77746327D01*
X64434838Y-77402799D01*
X64435162Y-77030833D01*
X64293117Y-76687057D01*
X64260000Y-76653882D01*
X64260000Y-74607167D01*
X75518838Y-74607167D01*
X75660883Y-74950943D01*
X75694000Y-74984118D01*
X75694000Y-75891537D01*
X75661808Y-75923673D01*
X75519162Y-76267201D01*
X75518838Y-76639167D01*
X75660883Y-76982943D01*
X75923673Y-77246192D01*
X76267201Y-77388838D01*
X76639167Y-77389162D01*
X76982943Y-77247117D01*
X77246192Y-76984327D01*
X77388838Y-76640799D01*
X77389162Y-76268833D01*
X77247117Y-75925057D01*
X77214000Y-75891882D01*
X77214000Y-74984463D01*
X77246192Y-74952327D01*
X77388838Y-74608799D01*
X77389162Y-74236833D01*
X77247117Y-73893057D01*
X76984327Y-73629808D01*
X76640799Y-73487162D01*
X76268833Y-73486838D01*
X75925057Y-73628883D01*
X75661808Y-73891673D01*
X75519162Y-74235201D01*
X75518838Y-74607167D01*
X64260000Y-74607167D01*
X64260000Y-71011547D01*
X64536943Y-70897117D01*
X64800192Y-70634327D01*
X64942838Y-70290799D01*
X64943162Y-69918833D01*
X64801117Y-69575057D01*
X64538327Y-69311808D01*
X64485808Y-69290000D01*
X84224680Y-69290000D01*
X83954642Y-69416817D01*
X83564355Y-69845076D01*
X83394524Y-70255110D01*
X83515845Y-70485000D01*
X84709000Y-70485000D01*
X84709000Y-70465000D01*
X84963000Y-70465000D01*
X84963000Y-70485000D01*
X84983000Y-70485000D01*
X84983000Y-70739000D01*
X84963000Y-70739000D01*
X84963000Y-70759000D01*
X84709000Y-70759000D01*
X84709000Y-70739000D01*
X83515845Y-70739000D01*
X83394524Y-70968890D01*
X83564355Y-71378924D01*
X83840501Y-71681937D01*
X83750683Y-71698838D01*
X83534559Y-71837910D01*
X83389569Y-72050110D01*
X83338560Y-72302000D01*
X83338560Y-74002000D01*
X83382838Y-74237317D01*
X83521910Y-74453441D01*
X83734110Y-74598431D01*
X83986000Y-74649440D01*
X85686000Y-74649440D01*
X85921317Y-74605162D01*
X86137441Y-74466090D01*
X86282431Y-74253890D01*
X86285000Y-74241204D01*
X86285000Y-101373134D01*
X86170159Y-101334446D01*
X85269605Y-102235000D01*
X86170159Y-103135554D01*
X86285000Y-103096866D01*
X86285000Y-103759374D01*
X85960643Y-103434449D01*
X85951628Y-103430706D01*
X85990554Y-103315159D01*
X85090000Y-102414605D01*
X85075858Y-102428748D01*
X84896253Y-102249143D01*
X84910395Y-102235000D01*
X84896253Y-102220858D01*
X85075858Y-102041253D01*
X85090000Y-102055395D01*
X85990554Y-101154841D01*
X85904148Y-100898357D01*
X85330664Y-100688542D01*
X84720540Y-100714161D01*
X84465245Y-100819908D01*
X84359117Y-100563057D01*
X84096327Y-100299808D01*
X83752799Y-100157162D01*
X83380833Y-100156838D01*
X83310000Y-100186106D01*
X83310000Y-99368463D01*
X83342192Y-99336327D01*
X83484838Y-98992799D01*
X83485162Y-98620833D01*
X83343117Y-98277057D01*
X83080327Y-98013808D01*
X82736799Y-97871162D01*
X82364833Y-97870838D01*
X82021057Y-98012883D01*
X81757808Y-98275673D01*
X81615162Y-98619201D01*
X81614838Y-98991167D01*
X81756883Y-99334943D01*
X81790000Y-99368118D01*
X81790000Y-103124000D01*
X81847852Y-103414839D01*
X81868940Y-103446399D01*
X81868838Y-103563167D01*
X82010883Y-103906943D01*
X82273673Y-104170192D01*
X82617201Y-104312838D01*
X82840419Y-104313032D01*
X82863852Y-104430839D01*
X83028599Y-104677401D01*
X83623599Y-105272401D01*
X83661696Y-105297857D01*
X83787932Y-105603371D01*
X84169182Y-105985288D01*
X83789449Y-106364357D01*
X83555267Y-106928330D01*
X83554735Y-107538991D01*
X83787932Y-108103371D01*
X84219357Y-108535551D01*
X84783330Y-108769733D01*
X85393991Y-108770265D01*
X85958371Y-108537068D01*
X86285000Y-108211010D01*
X86285000Y-127560000D01*
X57658467Y-127560000D01*
X57688192Y-127530327D01*
X57830838Y-127186799D01*
X57830850Y-127173151D01*
X57843167Y-127173162D01*
X58186943Y-127031117D01*
X58450192Y-126768327D01*
X58592838Y-126424799D01*
X58592850Y-126411151D01*
X58605167Y-126411162D01*
X58948943Y-126269117D01*
X59212192Y-126006327D01*
X59354838Y-125662799D01*
X59355007Y-125468241D01*
X76854994Y-125468241D01*
X77141314Y-126161191D01*
X77671021Y-126691822D01*
X78363469Y-126979352D01*
X79113241Y-126980006D01*
X79806191Y-126693686D01*
X80336822Y-126163979D01*
X80624352Y-125471531D01*
X80625006Y-124721759D01*
X80338686Y-124028809D01*
X79808979Y-123498178D01*
X79116531Y-123210648D01*
X78366759Y-123209994D01*
X77673809Y-123496314D01*
X77143178Y-124026021D01*
X76855648Y-124718469D01*
X76854994Y-125468241D01*
X59355007Y-125468241D01*
X59355162Y-125290833D01*
X59213117Y-124947057D01*
X58950327Y-124683808D01*
X58606799Y-124541162D01*
X58234833Y-124540838D01*
X57891057Y-124682883D01*
X57857882Y-124716000D01*
X55934463Y-124716000D01*
X55902327Y-124683808D01*
X55558799Y-124541162D01*
X55186833Y-124540838D01*
X54843057Y-124682883D01*
X54579808Y-124945673D01*
X54437162Y-125289201D01*
X54436838Y-125661167D01*
X54578883Y-126004943D01*
X54638860Y-126065024D01*
X54424833Y-126064838D01*
X54081057Y-126206883D01*
X53817808Y-126469673D01*
X53675162Y-126813201D01*
X53674838Y-127185167D01*
X53816883Y-127528943D01*
X53847886Y-127560000D01*
X45160000Y-127560000D01*
X45160000Y-126498802D01*
X45436599Y-126775401D01*
X45683161Y-126940148D01*
X45974000Y-126998000D01*
X46173537Y-126998000D01*
X46205673Y-127030192D01*
X46549201Y-127172838D01*
X46921167Y-127173162D01*
X47264943Y-127031117D01*
X47528192Y-126768327D01*
X47670838Y-126424799D01*
X47670937Y-126311265D01*
X47772943Y-126269117D01*
X48036192Y-126006327D01*
X48178838Y-125662799D01*
X48179162Y-125290833D01*
X48037117Y-124947057D01*
X47779111Y-124688600D01*
X47979910Y-124688600D01*
X48213299Y-124591927D01*
X48391927Y-124413298D01*
X48488600Y-124179909D01*
X48488600Y-123475750D01*
X48329850Y-123317000D01*
X47117000Y-123317000D01*
X47117000Y-123337000D01*
X46863000Y-123337000D01*
X46863000Y-123317000D01*
X46843000Y-123317000D01*
X46843000Y-123063000D01*
X46863000Y-123063000D01*
X46863000Y-120777000D01*
X46843000Y-120777000D01*
X46843000Y-120523000D01*
X46863000Y-120523000D01*
X46863000Y-118237000D01*
X46843000Y-118237000D01*
X46843000Y-117983000D01*
X46863000Y-117983000D01*
X46863000Y-117963000D01*
X47117000Y-117963000D01*
X47117000Y-117983000D01*
X48324469Y-117983000D01*
X48413724Y-117811136D01*
X48741152Y-118110000D01*
X48413724Y-118408864D01*
X48324469Y-118237000D01*
X47117000Y-118237000D01*
X47117000Y-120523000D01*
X48324469Y-120523000D01*
X48413724Y-120351136D01*
X48741152Y-120650000D01*
X48413724Y-120948864D01*
X48324469Y-120777000D01*
X47117000Y-120777000D01*
X47117000Y-123063000D01*
X48329850Y-123063000D01*
X48459726Y-122933124D01*
X48755053Y-123202688D01*
X49170974Y-123374958D01*
X49403000Y-123253817D01*
X49403000Y-122047000D01*
X49383000Y-122047000D01*
X49383000Y-121793000D01*
X49403000Y-121793000D01*
X49403000Y-119507000D01*
X48195531Y-119507000D01*
X48106276Y-119678864D01*
X47778848Y-119380000D01*
X48106276Y-119081136D01*
X48195531Y-119253000D01*
X49403000Y-119253000D01*
X49403000Y-116967000D01*
X48195531Y-116967000D01*
X48106276Y-117138864D01*
X47778839Y-116839992D01*
X48049670Y-116659029D01*
X48115971Y-116559803D01*
X48195531Y-116713000D01*
X49403000Y-116713000D01*
X49403000Y-116693000D01*
X49657000Y-116693000D01*
X49657000Y-116713000D01*
X50864469Y-116713000D01*
X50944029Y-116559803D01*
X51010330Y-116659029D01*
X51281172Y-116840000D01*
X51010330Y-117020971D01*
X50944029Y-117120197D01*
X50864469Y-116967000D01*
X49657000Y-116967000D01*
X49657000Y-119253000D01*
X50864469Y-119253000D01*
X50944029Y-119099803D01*
X51010330Y-119199029D01*
X51281172Y-119380000D01*
X51010330Y-119560971D01*
X50944029Y-119660197D01*
X50864469Y-119507000D01*
X49657000Y-119507000D01*
X49657000Y-121793000D01*
X50864469Y-121793000D01*
X50944029Y-121639803D01*
X51010330Y-121739029D01*
X51281172Y-121920000D01*
X51010330Y-122100971D01*
X50944029Y-122200197D01*
X50864469Y-122047000D01*
X49657000Y-122047000D01*
X49657000Y-123253817D01*
X49889026Y-123374958D01*
X50304947Y-123202688D01*
X50620290Y-122914855D01*
X50571400Y-123160641D01*
X50571400Y-123219359D01*
X50685474Y-123792848D01*
X51010330Y-124279029D01*
X51496511Y-124603885D01*
X52070000Y-124717959D01*
X52643489Y-124603885D01*
X53129670Y-124279029D01*
X53454526Y-123792848D01*
X53488710Y-123620991D01*
X62726735Y-123620991D01*
X62959932Y-124185371D01*
X63391357Y-124617551D01*
X63955330Y-124851733D01*
X64565991Y-124852265D01*
X65130371Y-124619068D01*
X65307841Y-124441908D01*
X65363673Y-124576699D01*
X65542302Y-124755327D01*
X65775691Y-124852000D01*
X66516250Y-124852000D01*
X66675000Y-124693250D01*
X66675000Y-123444000D01*
X66929000Y-123444000D01*
X66929000Y-124693250D01*
X67087750Y-124852000D01*
X67828309Y-124852000D01*
X68061698Y-124755327D01*
X68240327Y-124576699D01*
X68337000Y-124343310D01*
X68337000Y-123602750D01*
X68178250Y-123444000D01*
X66929000Y-123444000D01*
X66675000Y-123444000D01*
X66655000Y-123444000D01*
X66655000Y-123190000D01*
X66675000Y-123190000D01*
X66675000Y-121940750D01*
X66929000Y-121940750D01*
X66929000Y-123190000D01*
X68178250Y-123190000D01*
X68337000Y-123031250D01*
X68337000Y-122290690D01*
X68240327Y-122057301D01*
X68061698Y-121878673D01*
X67828309Y-121782000D01*
X67087750Y-121782000D01*
X66929000Y-121940750D01*
X66675000Y-121940750D01*
X66516250Y-121782000D01*
X65775691Y-121782000D01*
X65542302Y-121878673D01*
X65363673Y-122057301D01*
X65307881Y-122191994D01*
X65132643Y-122016449D01*
X64568670Y-121782267D01*
X63958009Y-121781735D01*
X63393629Y-122014932D01*
X62961449Y-122446357D01*
X62727267Y-123010330D01*
X62726735Y-123620991D01*
X53488710Y-123620991D01*
X53568600Y-123219359D01*
X53568600Y-123160641D01*
X53533404Y-122983697D01*
X53550330Y-123009029D01*
X54036511Y-123333885D01*
X54610000Y-123447959D01*
X55183489Y-123333885D01*
X55669670Y-123009029D01*
X55994526Y-122522848D01*
X56108600Y-121949359D01*
X56108600Y-121890641D01*
X55994526Y-121317152D01*
X55669670Y-120830971D01*
X55398828Y-120650000D01*
X55669670Y-120469029D01*
X55994526Y-119982848D01*
X56108600Y-119409359D01*
X56108600Y-119350641D01*
X55994526Y-118777152D01*
X55836729Y-118540991D01*
X62726735Y-118540991D01*
X62959932Y-119105371D01*
X63391357Y-119537551D01*
X63955330Y-119771733D01*
X64565991Y-119772265D01*
X65130371Y-119539068D01*
X65307841Y-119361908D01*
X65363673Y-119496699D01*
X65542302Y-119675327D01*
X65775691Y-119772000D01*
X66516250Y-119772000D01*
X66675000Y-119613250D01*
X66675000Y-118364000D01*
X66929000Y-118364000D01*
X66929000Y-119613250D01*
X67087750Y-119772000D01*
X67828309Y-119772000D01*
X68061698Y-119675327D01*
X68240327Y-119496699D01*
X68337000Y-119263310D01*
X68337000Y-118522750D01*
X68178250Y-118364000D01*
X66929000Y-118364000D01*
X66675000Y-118364000D01*
X66655000Y-118364000D01*
X66655000Y-118110000D01*
X66675000Y-118110000D01*
X66675000Y-116860750D01*
X66929000Y-116860750D01*
X66929000Y-118110000D01*
X68178250Y-118110000D01*
X68337000Y-117951250D01*
X68337000Y-117210690D01*
X68240327Y-116977301D01*
X68061698Y-116798673D01*
X67828309Y-116702000D01*
X67087750Y-116702000D01*
X66929000Y-116860750D01*
X66675000Y-116860750D01*
X66516250Y-116702000D01*
X65775691Y-116702000D01*
X65542302Y-116798673D01*
X65363673Y-116977301D01*
X65307881Y-117111994D01*
X65132643Y-116936449D01*
X64568670Y-116702267D01*
X63958009Y-116701735D01*
X63393629Y-116934932D01*
X62961449Y-117366357D01*
X62727267Y-117930330D01*
X62726735Y-118540991D01*
X55836729Y-118540991D01*
X55669670Y-118290971D01*
X55398828Y-118110000D01*
X55669670Y-117929029D01*
X55994526Y-117442848D01*
X56108600Y-116869359D01*
X56108600Y-116810641D01*
X55994526Y-116237152D01*
X55669670Y-115750971D01*
X55398828Y-115570000D01*
X55669670Y-115389029D01*
X55723650Y-115308241D01*
X76854994Y-115308241D01*
X77141314Y-116001191D01*
X77671021Y-116531822D01*
X78363469Y-116819352D01*
X79113241Y-116820006D01*
X79806191Y-116533686D01*
X80336822Y-116003979D01*
X80624352Y-115311531D01*
X80625006Y-114561759D01*
X80338686Y-113868809D01*
X79808979Y-113338178D01*
X79116531Y-113050648D01*
X78366759Y-113049994D01*
X77673809Y-113336314D01*
X77143178Y-113866021D01*
X76855648Y-114558469D01*
X76854994Y-115308241D01*
X55723650Y-115308241D01*
X55994526Y-114902848D01*
X56108600Y-114329359D01*
X56108600Y-114270641D01*
X55994526Y-113697152D01*
X55669670Y-113210971D01*
X55398828Y-113030000D01*
X55669670Y-112849029D01*
X55994526Y-112362848D01*
X56108600Y-111789359D01*
X56108600Y-111730641D01*
X56012995Y-111250000D01*
X56587537Y-111250000D01*
X56619673Y-111282192D01*
X56963201Y-111424838D01*
X57335167Y-111425162D01*
X57678943Y-111283117D01*
X57942192Y-111020327D01*
X58084838Y-110676799D01*
X58085162Y-110304833D01*
X58021178Y-110149980D01*
X58136599Y-110265401D01*
X58383161Y-110430148D01*
X58674000Y-110488000D01*
X65133897Y-110488000D01*
X65105162Y-110557201D01*
X65104838Y-110929167D01*
X65246883Y-111272943D01*
X65509673Y-111536192D01*
X65745969Y-111634311D01*
X65542302Y-111718673D01*
X65363673Y-111897301D01*
X65307881Y-112031994D01*
X65132643Y-111856449D01*
X64568670Y-111622267D01*
X63958009Y-111621735D01*
X63393629Y-111854932D01*
X62961449Y-112286357D01*
X62727267Y-112850330D01*
X62726735Y-113460991D01*
X62959932Y-114025371D01*
X63391357Y-114457551D01*
X63955330Y-114691733D01*
X64565991Y-114692265D01*
X65130371Y-114459068D01*
X65307841Y-114281908D01*
X65363673Y-114416699D01*
X65542302Y-114595327D01*
X65775691Y-114692000D01*
X66516250Y-114692000D01*
X66675000Y-114533250D01*
X66675000Y-113284000D01*
X66929000Y-113284000D01*
X66929000Y-114533250D01*
X67087750Y-114692000D01*
X67828309Y-114692000D01*
X68061698Y-114595327D01*
X68240327Y-114416699D01*
X68337000Y-114183310D01*
X68337000Y-113442750D01*
X68178250Y-113284000D01*
X66929000Y-113284000D01*
X66675000Y-113284000D01*
X66655000Y-113284000D01*
X66655000Y-113030000D01*
X66675000Y-113030000D01*
X66675000Y-111780750D01*
X66516250Y-111622000D01*
X66363510Y-111622000D01*
X66568943Y-111537117D01*
X66602118Y-111504000D01*
X67001537Y-111504000D01*
X67033673Y-111536192D01*
X67240321Y-111622000D01*
X67087750Y-111622000D01*
X66929000Y-111780750D01*
X66929000Y-113030000D01*
X68178250Y-113030000D01*
X68337000Y-112871250D01*
X68337000Y-112130690D01*
X68240327Y-111897301D01*
X68061698Y-111718673D01*
X67857873Y-111634246D01*
X68092943Y-111537117D01*
X68356192Y-111274327D01*
X68399071Y-111171064D01*
X68511167Y-111171162D01*
X68854943Y-111029117D01*
X69118192Y-110766327D01*
X69260838Y-110422799D01*
X69261162Y-110050833D01*
X69119117Y-109707057D01*
X69068982Y-109656834D01*
X75454543Y-109656834D01*
X75854853Y-110625658D01*
X76595443Y-111367542D01*
X77563567Y-111769542D01*
X78611834Y-111770457D01*
X79580658Y-111370147D01*
X80322542Y-110629557D01*
X80724542Y-109661433D01*
X80725457Y-108613166D01*
X80325147Y-107644342D01*
X79584557Y-106902458D01*
X78616433Y-106500458D01*
X77568166Y-106499543D01*
X76599342Y-106899853D01*
X75857458Y-107640443D01*
X75455458Y-108608567D01*
X75454543Y-109656834D01*
X69068982Y-109656834D01*
X68856327Y-109443808D01*
X68512799Y-109301162D01*
X68465923Y-109301121D01*
X68355401Y-109190599D01*
X68312670Y-109162047D01*
X68337000Y-109103310D01*
X68337000Y-108362750D01*
X68178250Y-108204000D01*
X66929000Y-108204000D01*
X66929000Y-108224000D01*
X66675000Y-108224000D01*
X66675000Y-108204000D01*
X66655000Y-108204000D01*
X66655000Y-107950000D01*
X66675000Y-107950000D01*
X66675000Y-106700750D01*
X66929000Y-106700750D01*
X66929000Y-107950000D01*
X68178250Y-107950000D01*
X68337000Y-107791250D01*
X68337000Y-107050690D01*
X68240327Y-106817301D01*
X68061698Y-106638673D01*
X67828309Y-106542000D01*
X67087750Y-106542000D01*
X66929000Y-106700750D01*
X66675000Y-106700750D01*
X66516250Y-106542000D01*
X65775691Y-106542000D01*
X65542302Y-106638673D01*
X65363673Y-106817301D01*
X65307881Y-106951994D01*
X65132643Y-106776449D01*
X64568670Y-106542267D01*
X63958009Y-106541735D01*
X63393629Y-106774932D01*
X62961449Y-107206357D01*
X62727267Y-107770330D01*
X62726735Y-108380991D01*
X62959932Y-108945371D01*
X62982521Y-108968000D01*
X58988802Y-108968000D01*
X58418000Y-108397198D01*
X58418000Y-103300991D01*
X62726735Y-103300991D01*
X62959932Y-103865371D01*
X63391357Y-104297551D01*
X63955330Y-104531733D01*
X64565991Y-104532265D01*
X65130371Y-104299068D01*
X65307841Y-104121908D01*
X65363673Y-104256699D01*
X65542302Y-104435327D01*
X65775691Y-104532000D01*
X66516250Y-104532000D01*
X66675000Y-104373250D01*
X66675000Y-103124000D01*
X66929000Y-103124000D01*
X66929000Y-104373250D01*
X67087750Y-104532000D01*
X67828309Y-104532000D01*
X68061698Y-104435327D01*
X68240327Y-104256699D01*
X68337000Y-104023310D01*
X68337000Y-103282750D01*
X68178250Y-103124000D01*
X66929000Y-103124000D01*
X66675000Y-103124000D01*
X66655000Y-103124000D01*
X66655000Y-102870000D01*
X66675000Y-102870000D01*
X66675000Y-101620750D01*
X66929000Y-101620750D01*
X66929000Y-102870000D01*
X68178250Y-102870000D01*
X68337000Y-102711250D01*
X68337000Y-101970690D01*
X68240327Y-101737301D01*
X68061698Y-101558673D01*
X67828309Y-101462000D01*
X67087750Y-101462000D01*
X66929000Y-101620750D01*
X66675000Y-101620750D01*
X66516250Y-101462000D01*
X65775691Y-101462000D01*
X65542302Y-101558673D01*
X65363673Y-101737301D01*
X65307881Y-101871994D01*
X65132643Y-101696449D01*
X64568670Y-101462267D01*
X63958009Y-101461735D01*
X63393629Y-101694932D01*
X62961449Y-102126357D01*
X62727267Y-102690330D01*
X62726735Y-103300991D01*
X58418000Y-103300991D01*
X58418000Y-101914802D01*
X59211401Y-101121401D01*
X59376148Y-100874839D01*
X59379729Y-100856834D01*
X75454543Y-100856834D01*
X75854853Y-101825658D01*
X76595443Y-102567542D01*
X77563567Y-102969542D01*
X78611834Y-102970457D01*
X79580658Y-102570147D01*
X80322542Y-101829557D01*
X80724542Y-100861433D01*
X80725457Y-99813166D01*
X80325147Y-98844342D01*
X79584557Y-98102458D01*
X78616433Y-97700458D01*
X77568166Y-97699543D01*
X76599342Y-98099853D01*
X75857458Y-98840443D01*
X75455458Y-99808567D01*
X75454543Y-100856834D01*
X59379729Y-100856834D01*
X59434000Y-100584000D01*
X59434000Y-90863167D01*
X81614838Y-90863167D01*
X81756883Y-91206943D01*
X82019673Y-91470192D01*
X82363201Y-91612838D01*
X82735167Y-91613162D01*
X83078943Y-91471117D01*
X83342192Y-91208327D01*
X83484838Y-90864799D01*
X83484879Y-90817923D01*
X83595401Y-90707401D01*
X83760147Y-90460840D01*
X83760148Y-90460839D01*
X83818000Y-90170000D01*
X83818000Y-79302463D01*
X83850192Y-79270327D01*
X83992838Y-78926799D01*
X83993162Y-78554833D01*
X83851117Y-78211057D01*
X83588327Y-77947808D01*
X83244799Y-77805162D01*
X82872833Y-77804838D01*
X82529057Y-77946883D01*
X82265808Y-78209673D01*
X82123162Y-78553201D01*
X82122838Y-78925167D01*
X82264883Y-79268943D01*
X82298000Y-79302118D01*
X82298000Y-89770453D01*
X82021057Y-89884883D01*
X81757808Y-90147673D01*
X81615162Y-90491201D01*
X81614838Y-90863167D01*
X59434000Y-90863167D01*
X59434000Y-89970463D01*
X59466192Y-89938327D01*
X59608838Y-89594799D01*
X59609162Y-89222833D01*
X59467117Y-88879057D01*
X59204327Y-88615808D01*
X58860799Y-88473162D01*
X58488833Y-88472838D01*
X58145057Y-88614883D01*
X57881808Y-88877673D01*
X57739162Y-89221201D01*
X57738838Y-89593167D01*
X57880883Y-89936943D01*
X57914000Y-89970118D01*
X57914000Y-90505001D01*
X57726833Y-90504838D01*
X57383057Y-90646883D01*
X57119808Y-90909673D01*
X56977162Y-91253201D01*
X56976838Y-91625167D01*
X57118883Y-91968943D01*
X57152000Y-92002118D01*
X57152000Y-92537001D01*
X56964833Y-92536838D01*
X56621057Y-92678883D01*
X56357808Y-92941673D01*
X56215162Y-93285201D01*
X56214838Y-93657167D01*
X56356883Y-94000943D01*
X56390000Y-94034118D01*
X56390000Y-94823001D01*
X56202833Y-94822838D01*
X55859057Y-94964883D01*
X55595808Y-95227673D01*
X55545768Y-95348182D01*
X55398828Y-95250000D01*
X55669670Y-95069029D01*
X55994526Y-94582848D01*
X56108600Y-94009359D01*
X56108600Y-93950641D01*
X55994526Y-93377152D01*
X55669670Y-92890971D01*
X55398828Y-92710000D01*
X55669670Y-92529029D01*
X55994526Y-92042848D01*
X56108600Y-91469359D01*
X56108600Y-91410641D01*
X55994526Y-90837152D01*
X55669670Y-90350971D01*
X55398828Y-90170000D01*
X55669670Y-89989029D01*
X55994526Y-89502848D01*
X56108600Y-88929359D01*
X56108600Y-88870641D01*
X55994526Y-88297152D01*
X55842192Y-88069167D01*
X74756838Y-88069167D01*
X74898883Y-88412943D01*
X75161673Y-88676192D01*
X75505201Y-88818838D01*
X75877167Y-88819162D01*
X76220943Y-88677117D01*
X76484192Y-88414327D01*
X76494294Y-88390000D01*
X76907537Y-88390000D01*
X76939673Y-88422192D01*
X77283201Y-88564838D01*
X77655167Y-88565162D01*
X77998943Y-88423117D01*
X78262192Y-88160327D01*
X78404838Y-87816799D01*
X78405162Y-87444833D01*
X78263117Y-87101057D01*
X78000327Y-86837808D01*
X77656799Y-86695162D01*
X77284833Y-86694838D01*
X76941057Y-86836883D01*
X76907882Y-86870000D01*
X75946000Y-86870000D01*
X75655160Y-86927852D01*
X75623600Y-86948940D01*
X75506833Y-86948838D01*
X75163057Y-87090883D01*
X74899808Y-87353673D01*
X74757162Y-87697201D01*
X74756838Y-88069167D01*
X55842192Y-88069167D01*
X55669670Y-87810971D01*
X55398828Y-87630000D01*
X55669670Y-87449029D01*
X55994526Y-86962848D01*
X56108600Y-86389359D01*
X56108600Y-86330641D01*
X55994526Y-85757152D01*
X55669670Y-85270971D01*
X55398828Y-85090000D01*
X55669670Y-84909029D01*
X55994526Y-84422848D01*
X56108600Y-83849359D01*
X56108600Y-83790641D01*
X55994526Y-83217152D01*
X55669670Y-82730971D01*
X55398828Y-82550000D01*
X55669670Y-82369029D01*
X55994526Y-81882848D01*
X56108600Y-81309359D01*
X56108600Y-81250641D01*
X55994526Y-80677152D01*
X55842192Y-80449167D01*
X65612838Y-80449167D01*
X65754883Y-80792943D01*
X66017673Y-81056192D01*
X66361201Y-81198838D01*
X66733167Y-81199162D01*
X67076943Y-81057117D01*
X67340192Y-80794327D01*
X67482838Y-80450799D01*
X67482879Y-80403923D01*
X68609401Y-79277401D01*
X68774148Y-79030840D01*
X68794843Y-78926799D01*
X68832000Y-78740000D01*
X68832000Y-77524463D01*
X68864192Y-77492327D01*
X69006838Y-77148799D01*
X69007162Y-76776833D01*
X68865117Y-76433057D01*
X68602327Y-76169808D01*
X68258799Y-76027162D01*
X67886833Y-76026838D01*
X67543057Y-76168883D01*
X67279808Y-76431673D01*
X67137162Y-76775201D01*
X67136838Y-77147167D01*
X67278883Y-77490943D01*
X67312000Y-77524118D01*
X67312000Y-78425198D01*
X66408320Y-79328878D01*
X66362833Y-79328838D01*
X66019057Y-79470883D01*
X65755808Y-79733673D01*
X65613162Y-80077201D01*
X65612838Y-80449167D01*
X55842192Y-80449167D01*
X55669670Y-80190971D01*
X55398828Y-80010000D01*
X55669670Y-79829029D01*
X55994526Y-79342848D01*
X56108600Y-78769359D01*
X56108600Y-78710641D01*
X55994526Y-78137152D01*
X55669670Y-77650971D01*
X55398828Y-77470000D01*
X55669670Y-77289029D01*
X55994526Y-76802848D01*
X56108600Y-76229359D01*
X56108600Y-76170641D01*
X55994526Y-75597152D01*
X55672474Y-75115167D01*
X59008838Y-75115167D01*
X59150883Y-75458943D01*
X59184000Y-75492118D01*
X59184000Y-76708000D01*
X59241852Y-76998839D01*
X59262940Y-77030399D01*
X59262838Y-77147167D01*
X59404883Y-77490943D01*
X59667673Y-77754192D01*
X60011201Y-77896838D01*
X60383167Y-77897162D01*
X60726943Y-77755117D01*
X60990192Y-77492327D01*
X61132838Y-77148799D01*
X61133162Y-76776833D01*
X60991117Y-76433057D01*
X60728327Y-76169808D01*
X60704000Y-76159706D01*
X60704000Y-75492463D01*
X60736192Y-75460327D01*
X60878838Y-75116799D01*
X60879162Y-74744833D01*
X60737117Y-74401057D01*
X60474327Y-74137808D01*
X60130799Y-73995162D01*
X59758833Y-73994838D01*
X59415057Y-74136883D01*
X59151808Y-74399673D01*
X59009162Y-74743201D01*
X59008838Y-75115167D01*
X55672474Y-75115167D01*
X55669670Y-75110971D01*
X55398828Y-74930000D01*
X55669670Y-74749029D01*
X55994526Y-74262848D01*
X56108600Y-73689359D01*
X56108600Y-73630641D01*
X55994526Y-73057152D01*
X55669670Y-72570971D01*
X55183489Y-72246115D01*
X54610000Y-72132041D01*
X54036511Y-72246115D01*
X53550330Y-72570971D01*
X53225474Y-73057152D01*
X53111400Y-73630641D01*
X53111400Y-73689359D01*
X53146596Y-73866303D01*
X53129670Y-73840971D01*
X52643489Y-73516115D01*
X52070000Y-73402041D01*
X51496511Y-73516115D01*
X51010330Y-73840971D01*
X50993404Y-73866303D01*
X51028600Y-73689359D01*
X51028600Y-73630641D01*
X50914526Y-73057152D01*
X50589670Y-72570971D01*
X50103489Y-72246115D01*
X49530000Y-72132041D01*
X48956511Y-72246115D01*
X48470330Y-72570971D01*
X48346296Y-72756601D01*
X48291117Y-72623057D01*
X48258000Y-72589882D01*
X48258000Y-70920463D01*
X48290192Y-70888327D01*
X48432838Y-70544799D01*
X48433162Y-70172833D01*
X48291117Y-69829057D01*
X48028327Y-69565808D01*
X47684799Y-69423162D01*
X47312833Y-69422838D01*
X46969057Y-69564883D01*
X46705808Y-69827673D01*
X46563162Y-70171201D01*
X46562838Y-70543167D01*
X46704883Y-70886943D01*
X46738000Y-70920118D01*
X46738000Y-72589537D01*
X46705808Y-72621673D01*
X46563162Y-72965201D01*
X46562838Y-73337167D01*
X46620049Y-73475629D01*
X46416511Y-73516115D01*
X45930330Y-73840971D01*
X45718000Y-74158745D01*
X45718000Y-72952463D01*
X45750192Y-72920327D01*
X45892838Y-72576799D01*
X45893162Y-72204833D01*
X45751117Y-71861057D01*
X45488327Y-71597808D01*
X45160000Y-71461474D01*
X45160000Y-69290000D01*
X63529598Y-69290000D01*
X63479057Y-69310883D01*
M02*
