M48
;DRILL file {KiCad 4.0.6} date 2017 August 12, Saturday 19:42:30
;FORMAT={-:-/ absolute / metric / decimal}
FMAT,2
METRIC,TZ
T1C0.400
T2C0.900
T3C1.000
T4C1.001
T5C1.016
%
G90
G05
M71
T1
X44.958Y-72.39
X45.212Y-81.788
X46.736Y-126.238
X47.244Y-125.476
X47.498Y-70.358
X47.498Y-73.152
X48.26Y-95.758
X54.61Y-127.
X54.864Y-124.714
X55.372Y-125.476
X55.626Y-126.238
X56.134Y-105.41
X56.134Y-107.95
X56.388Y-95.758
X56.388Y-100.076
X56.896Y-127.
X57.15Y-93.472
X57.15Y-110.49
X57.658Y-126.238
X57.912Y-91.44
X58.42Y-125.476
X58.674Y-89.408
X59.944Y-74.93
X60.198Y-76.962
X60.198Y-124.714
X61.976Y-85.344
X63.5Y-77.216
X64.008Y-70.104
X65.786Y-71.882
X66.04Y-110.744
X66.548Y-80.264
X67.564Y-110.744
X67.818Y-85.344
X68.072Y-76.962
X68.326Y-110.236
X69.342Y-115.57
X75.692Y-87.884
X76.2Y-71.628
X76.454Y-74.422
X76.454Y-76.454
X77.47Y-87.63
X82.55Y-90.678
X82.55Y-98.806
X82.804Y-77.724
X82.804Y-103.378
X83.058Y-78.74
X83.566Y-101.092
T2
X64.262Y-102.997
X64.262Y-108.077
X64.262Y-113.157
X64.262Y-118.237
X64.262Y-123.317
X66.802Y-102.997
X66.802Y-108.077
X66.802Y-113.157
X66.802Y-118.237
X66.802Y-123.317
T3
X84.836Y-70.612
X84.836Y-73.152
X85.09Y-102.235
X85.09Y-104.735
X85.09Y-107.235
T4
X78.74Y-114.935
X78.74Y-125.095
T5
X46.99Y-74.93
X46.99Y-77.47
X46.99Y-80.01
X46.99Y-82.55
X46.99Y-85.09
X46.99Y-87.63
X46.99Y-90.17
X46.99Y-92.71
X46.99Y-95.25
X46.99Y-97.79
X46.99Y-100.33
X46.99Y-102.87
X46.99Y-105.41
X46.99Y-107.95
X46.99Y-110.49
X46.99Y-113.03
X46.99Y-115.57
X46.99Y-118.11
X46.99Y-120.65
X46.99Y-123.19
X49.53Y-73.66
X49.53Y-76.2
X49.53Y-78.74
X49.53Y-81.28
X49.53Y-83.82
X49.53Y-86.36
X49.53Y-88.9
X49.53Y-91.44
X49.53Y-93.98
X49.53Y-96.52
X49.53Y-99.06
X49.53Y-101.6
X49.53Y-104.14
X49.53Y-106.68
X49.53Y-109.22
X49.53Y-111.76
X49.53Y-114.3
X49.53Y-116.84
X49.53Y-119.38
X49.53Y-121.92
X52.07Y-74.93
X52.07Y-77.47
X52.07Y-80.01
X52.07Y-82.55
X52.07Y-85.09
X52.07Y-87.63
X52.07Y-90.17
X52.07Y-92.71
X52.07Y-95.25
X52.07Y-97.79
X52.07Y-100.33
X52.07Y-102.87
X52.07Y-105.41
X52.07Y-107.95
X52.07Y-110.49
X52.07Y-113.03
X52.07Y-115.57
X52.07Y-118.11
X52.07Y-120.65
X52.07Y-123.19
X54.61Y-73.66
X54.61Y-76.2
X54.61Y-78.74
X54.61Y-81.28
X54.61Y-83.82
X54.61Y-86.36
X54.61Y-88.9
X54.61Y-91.44
X54.61Y-93.98
X54.61Y-96.52
X54.61Y-99.06
X54.61Y-101.6
X54.61Y-104.14
X54.61Y-106.68
X54.61Y-109.22
X54.61Y-111.76
X54.61Y-114.3
X54.61Y-116.84
X54.61Y-119.38
X54.61Y-121.92
T0
M30
