G04 #@! TF.FileFunction,Legend,Top*
%FSLAX46Y46*%
G04 Gerber Fmt 4.6, Leading zero omitted, Abs format (unit mm)*
G04 Created by KiCad (PCBNEW 4.0.6) date Monday, August 21, 2017 'PMt' 12:57:47 PM*
%MOMM*%
%LPD*%
G01*
G04 APERTURE LIST*
%ADD10C,0.100000*%
%ADD11C,0.120000*%
%ADD12C,0.150000*%
%ADD13C,0.050000*%
%ADD14C,0.075000*%
G04 APERTURE END LIST*
D10*
D11*
X86744871Y-120015000D02*
G75*
G03X86744871Y-120015000I-8004871J0D01*
G01*
X82304000Y-89750000D02*
X83304000Y-89750000D01*
X83304000Y-88050000D02*
X82304000Y-88050000D01*
X85178000Y-78986000D02*
X85178000Y-77986000D01*
X83478000Y-77986000D02*
X83478000Y-78986000D01*
X63859665Y-104075608D02*
G75*
G03X67092000Y-104232516I1672335J1078608D01*
G01*
X63859665Y-101918392D02*
G75*
G02X67092000Y-101761484I1672335J-1078608D01*
G01*
X64490870Y-104076837D02*
G75*
G03X66572961Y-104077000I1041130J1079837D01*
G01*
X64490870Y-101917163D02*
G75*
G02X66572961Y-101917000I1041130J-1079837D01*
G01*
X67092000Y-104233000D02*
X67092000Y-104077000D01*
X67092000Y-101917000D02*
X67092000Y-101761000D01*
X63859665Y-119315608D02*
G75*
G03X67092000Y-119472516I1672335J1078608D01*
G01*
X63859665Y-117158392D02*
G75*
G02X67092000Y-117001484I1672335J-1078608D01*
G01*
X64490870Y-119316837D02*
G75*
G03X66572961Y-119317000I1041130J1079837D01*
G01*
X64490870Y-117157163D02*
G75*
G02X66572961Y-117157000I1041130J-1079837D01*
G01*
X67092000Y-119473000D02*
X67092000Y-119317000D01*
X67092000Y-117157000D02*
X67092000Y-117001000D01*
X63859665Y-114235608D02*
G75*
G03X67092000Y-114392516I1672335J1078608D01*
G01*
X63859665Y-112078392D02*
G75*
G02X67092000Y-111921484I1672335J-1078608D01*
G01*
X64490870Y-114236837D02*
G75*
G03X66572961Y-114237000I1041130J1079837D01*
G01*
X64490870Y-112077163D02*
G75*
G02X66572961Y-112077000I1041130J-1079837D01*
G01*
X67092000Y-114393000D02*
X67092000Y-114237000D01*
X67092000Y-112077000D02*
X67092000Y-111921000D01*
X63859665Y-124395608D02*
G75*
G03X67092000Y-124552516I1672335J1078608D01*
G01*
X63859665Y-122238392D02*
G75*
G02X67092000Y-122081484I1672335J-1078608D01*
G01*
X64490870Y-124396837D02*
G75*
G03X66572961Y-124397000I1041130J1079837D01*
G01*
X64490870Y-122237163D02*
G75*
G02X66572961Y-122237000I1041130J-1079837D01*
G01*
X67092000Y-124553000D02*
X67092000Y-124397000D01*
X67092000Y-122237000D02*
X67092000Y-122081000D01*
X63859665Y-109155608D02*
G75*
G03X67092000Y-109312516I1672335J1078608D01*
G01*
X63859665Y-106998392D02*
G75*
G02X67092000Y-106841484I1672335J-1078608D01*
G01*
X64490870Y-109156837D02*
G75*
G03X66572961Y-109157000I1041130J1079837D01*
G01*
X64490870Y-106997163D02*
G75*
G02X66572961Y-106997000I1041130J-1079837D01*
G01*
X67092000Y-109313000D02*
X67092000Y-109157000D01*
X67092000Y-106997000D02*
X67092000Y-106841000D01*
X67266000Y-79850000D02*
X73366000Y-79850000D01*
X67266000Y-80950000D02*
X67266000Y-79850000D01*
X73366000Y-85250000D02*
X68366000Y-85250000D01*
D12*
X46355000Y-127460000D02*
X46990000Y-126190000D01*
X46990000Y-126190000D02*
X47625000Y-127460000D01*
X55880000Y-69370000D02*
X55880000Y-127490000D01*
X55880000Y-127490000D02*
X45720000Y-127490000D01*
X45720000Y-127490000D02*
X45720000Y-69370000D01*
X45720000Y-69370000D02*
X55880000Y-69370000D01*
X49720000Y-109510000D02*
X50270000Y-109510000D01*
D11*
X86166000Y-69282000D02*
X83506000Y-69282000D01*
X86166000Y-71882000D02*
X86166000Y-69282000D01*
X83506000Y-71882000D02*
X83506000Y-69282000D01*
X86166000Y-71882000D02*
X83506000Y-71882000D01*
X86166000Y-73152000D02*
X86166000Y-74482000D01*
X86166000Y-74482000D02*
X84836000Y-74482000D01*
X59852000Y-102117000D02*
X61052000Y-102117000D01*
X61052000Y-103877000D02*
X59852000Y-103877000D01*
X59852000Y-117357000D02*
X61052000Y-117357000D01*
X61052000Y-119117000D02*
X59852000Y-119117000D01*
X59852000Y-112277000D02*
X61052000Y-112277000D01*
X61052000Y-114037000D02*
X59852000Y-114037000D01*
X59852000Y-122437000D02*
X61052000Y-122437000D01*
X61052000Y-124197000D02*
X59852000Y-124197000D01*
X59852000Y-107197000D02*
X61052000Y-107197000D01*
X61052000Y-108957000D02*
X59852000Y-108957000D01*
X61376000Y-69478000D02*
X62576000Y-69478000D01*
X62576000Y-71238000D02*
X61376000Y-71238000D01*
X61376000Y-71383000D02*
X62576000Y-71383000D01*
X62576000Y-73143000D02*
X61376000Y-73143000D01*
X61376000Y-73288000D02*
X62576000Y-73288000D01*
X62576000Y-75048000D02*
X61376000Y-75048000D01*
X62576000Y-76826000D02*
X61376000Y-76826000D01*
X61376000Y-75066000D02*
X62576000Y-75066000D01*
X79156000Y-73288000D02*
X80356000Y-73288000D01*
X80356000Y-75048000D02*
X79156000Y-75048000D01*
X79156000Y-69732000D02*
X80356000Y-69732000D01*
X80356000Y-71492000D02*
X79156000Y-71492000D01*
X79156000Y-75066000D02*
X80356000Y-75066000D01*
X80356000Y-76826000D02*
X79156000Y-76826000D01*
X79156000Y-71510000D02*
X80356000Y-71510000D01*
X80356000Y-73270000D02*
X79156000Y-73270000D01*
X76418018Y-107497432D02*
G75*
G02X76417000Y-101973000I1171982J2762432D01*
G01*
X79518295Y-102437247D02*
G75*
G02X79518000Y-107033000I-1928295J-2297753D01*
G01*
X84150000Y-109696000D02*
X80284000Y-109696000D01*
X75895000Y-109696000D02*
X72030000Y-109696000D01*
X84150000Y-99775000D02*
X80284000Y-99775000D01*
X75895000Y-99775000D02*
X72030000Y-99775000D01*
X84150000Y-109696000D02*
X84150000Y-108060000D01*
X84150000Y-106410000D02*
X84150000Y-105560000D01*
X84150000Y-103910000D02*
X84150000Y-103060000D01*
X84150000Y-101410000D02*
X84150000Y-99775000D01*
X72030000Y-109696000D02*
X72030000Y-99775000D01*
X74016000Y-71010000D02*
X74016000Y-70560000D01*
X74016000Y-70560000D02*
X67716000Y-70560000D01*
X67716000Y-70560000D02*
X67716000Y-70960000D01*
X74016000Y-72310000D02*
X74016000Y-75010000D01*
X67716000Y-75010000D02*
X67716000Y-72310000D01*
X74016000Y-76760000D02*
X67716000Y-76760000D01*
X67716000Y-76760000D02*
X67716000Y-76310000D01*
X74016000Y-76310000D02*
X74016000Y-76760000D01*
X59326000Y-79400000D02*
X58876000Y-79400000D01*
X58876000Y-79400000D02*
X58876000Y-85700000D01*
X58876000Y-85700000D02*
X59276000Y-85700000D01*
X60626000Y-79400000D02*
X63326000Y-79400000D01*
X63326000Y-85700000D02*
X60626000Y-85700000D01*
X65076000Y-79400000D02*
X65076000Y-85700000D01*
X65076000Y-85700000D02*
X64626000Y-85700000D01*
X64626000Y-79400000D02*
X65076000Y-79400000D01*
X82406000Y-85700000D02*
X82856000Y-85700000D01*
X82856000Y-85700000D02*
X82856000Y-79400000D01*
X82856000Y-79400000D02*
X82456000Y-79400000D01*
X81106000Y-85700000D02*
X78406000Y-85700000D01*
X78406000Y-79400000D02*
X81106000Y-79400000D01*
X76656000Y-85700000D02*
X76656000Y-79400000D01*
X76656000Y-79400000D02*
X77106000Y-79400000D01*
X77106000Y-85700000D02*
X76656000Y-85700000D01*
X67716000Y-94090000D02*
X67716000Y-94540000D01*
X67716000Y-94540000D02*
X74016000Y-94540000D01*
X74016000Y-94540000D02*
X74016000Y-94140000D01*
X67716000Y-92790000D02*
X67716000Y-90090000D01*
X74016000Y-90090000D02*
X74016000Y-92790000D01*
X67716000Y-88340000D02*
X74016000Y-88340000D01*
X74016000Y-88340000D02*
X74016000Y-88790000D01*
X67716000Y-88790000D02*
X67716000Y-88340000D01*
X71626000Y-114610000D02*
X71626000Y-113680000D01*
X71626000Y-111450000D02*
X71626000Y-112380000D01*
X71626000Y-111450000D02*
X69466000Y-111450000D01*
X71626000Y-114610000D02*
X70166000Y-114610000D01*
X79116000Y-90062000D02*
X79116000Y-91322000D01*
X79116000Y-96882000D02*
X79116000Y-95622000D01*
X82876000Y-90062000D02*
X79116000Y-90062000D01*
X85126000Y-96882000D02*
X79116000Y-96882000D01*
D12*
X76918511Y-120647032D02*
X76966130Y-120504175D01*
X77013750Y-120456556D01*
X77108988Y-120408937D01*
X77251845Y-120408937D01*
X77347083Y-120456556D01*
X77394702Y-120504175D01*
X77442321Y-120599413D01*
X77442321Y-120980366D01*
X76442321Y-120980366D01*
X76442321Y-120647032D01*
X76489940Y-120551794D01*
X76537559Y-120504175D01*
X76632797Y-120456556D01*
X76728035Y-120456556D01*
X76823273Y-120504175D01*
X76870892Y-120551794D01*
X76918511Y-120647032D01*
X76918511Y-120980366D01*
X76442321Y-120075604D02*
X76442321Y-119408937D01*
X77442321Y-120075604D01*
X77442321Y-119408937D01*
X77442321Y-118504175D02*
X77442321Y-119075604D01*
X77442321Y-118789890D02*
X76442321Y-118789890D01*
X76585178Y-118885128D01*
X76680416Y-118980366D01*
X76728035Y-119075604D01*
X82637334Y-90757143D02*
X82589715Y-90804762D01*
X82446858Y-90852381D01*
X82351620Y-90852381D01*
X82208762Y-90804762D01*
X82113524Y-90709524D01*
X82065905Y-90614286D01*
X82018286Y-90423810D01*
X82018286Y-90280952D01*
X82065905Y-90090476D01*
X82113524Y-89995238D01*
X82208762Y-89900000D01*
X82351620Y-89852381D01*
X82446858Y-89852381D01*
X82589715Y-89900000D01*
X82637334Y-89947619D01*
X83589715Y-90852381D02*
X83018286Y-90852381D01*
X83304000Y-90852381D02*
X83304000Y-89852381D01*
X83208762Y-89995238D01*
X83113524Y-90090476D01*
X83018286Y-90138095D01*
D13*
X82754000Y-89007143D02*
X82739714Y-89021429D01*
X82696857Y-89035714D01*
X82668286Y-89035714D01*
X82625429Y-89021429D01*
X82596857Y-88992857D01*
X82582572Y-88964286D01*
X82568286Y-88907143D01*
X82568286Y-88864286D01*
X82582572Y-88807143D01*
X82596857Y-88778571D01*
X82625429Y-88750000D01*
X82668286Y-88735714D01*
X82696857Y-88735714D01*
X82739714Y-88750000D01*
X82754000Y-88764286D01*
X83039714Y-89035714D02*
X82868286Y-89035714D01*
X82954000Y-89035714D02*
X82954000Y-88735714D01*
X82925429Y-88778571D01*
X82896857Y-88807143D01*
X82868286Y-88821429D01*
D12*
X86185143Y-78652666D02*
X86232762Y-78700285D01*
X86280381Y-78843142D01*
X86280381Y-78938380D01*
X86232762Y-79081238D01*
X86137524Y-79176476D01*
X86042286Y-79224095D01*
X85851810Y-79271714D01*
X85708952Y-79271714D01*
X85518476Y-79224095D01*
X85423238Y-79176476D01*
X85328000Y-79081238D01*
X85280381Y-78938380D01*
X85280381Y-78843142D01*
X85328000Y-78700285D01*
X85375619Y-78652666D01*
X85375619Y-78271714D02*
X85328000Y-78224095D01*
X85280381Y-78128857D01*
X85280381Y-77890761D01*
X85328000Y-77795523D01*
X85375619Y-77747904D01*
X85470857Y-77700285D01*
X85566095Y-77700285D01*
X85708952Y-77747904D01*
X86280381Y-78319333D01*
X86280381Y-77700285D01*
D13*
X84435143Y-78536000D02*
X84449429Y-78550286D01*
X84463714Y-78593143D01*
X84463714Y-78621714D01*
X84449429Y-78664571D01*
X84420857Y-78693143D01*
X84392286Y-78707428D01*
X84335143Y-78721714D01*
X84292286Y-78721714D01*
X84235143Y-78707428D01*
X84206571Y-78693143D01*
X84178000Y-78664571D01*
X84163714Y-78621714D01*
X84163714Y-78593143D01*
X84178000Y-78550286D01*
X84192286Y-78536000D01*
X84192286Y-78421714D02*
X84178000Y-78407428D01*
X84163714Y-78378857D01*
X84163714Y-78307428D01*
X84178000Y-78278857D01*
X84192286Y-78264571D01*
X84220857Y-78250286D01*
X84249429Y-78250286D01*
X84292286Y-78264571D01*
X84463714Y-78436000D01*
X84463714Y-78250286D01*
D12*
X64793905Y-106409381D02*
X64793905Y-105409381D01*
X65032000Y-105409381D01*
X65174858Y-105457000D01*
X65270096Y-105552238D01*
X65317715Y-105647476D01*
X65365334Y-105837952D01*
X65365334Y-105980810D01*
X65317715Y-106171286D01*
X65270096Y-106266524D01*
X65174858Y-106361762D01*
X65032000Y-106409381D01*
X64793905Y-106409381D01*
X66317715Y-106409381D02*
X65746286Y-106409381D01*
X66032000Y-106409381D02*
X66032000Y-105409381D01*
X65936762Y-105552238D01*
X65841524Y-105647476D01*
X65746286Y-105695095D01*
X64793905Y-121649381D02*
X64793905Y-120649381D01*
X65032000Y-120649381D01*
X65174858Y-120697000D01*
X65270096Y-120792238D01*
X65317715Y-120887476D01*
X65365334Y-121077952D01*
X65365334Y-121220810D01*
X65317715Y-121411286D01*
X65270096Y-121506524D01*
X65174858Y-121601762D01*
X65032000Y-121649381D01*
X64793905Y-121649381D01*
X65746286Y-120744619D02*
X65793905Y-120697000D01*
X65889143Y-120649381D01*
X66127239Y-120649381D01*
X66222477Y-120697000D01*
X66270096Y-120744619D01*
X66317715Y-120839857D01*
X66317715Y-120935095D01*
X66270096Y-121077952D01*
X65698667Y-121649381D01*
X66317715Y-121649381D01*
X64793905Y-116569381D02*
X64793905Y-115569381D01*
X65032000Y-115569381D01*
X65174858Y-115617000D01*
X65270096Y-115712238D01*
X65317715Y-115807476D01*
X65365334Y-115997952D01*
X65365334Y-116140810D01*
X65317715Y-116331286D01*
X65270096Y-116426524D01*
X65174858Y-116521762D01*
X65032000Y-116569381D01*
X64793905Y-116569381D01*
X65698667Y-115569381D02*
X66317715Y-115569381D01*
X65984381Y-115950333D01*
X66127239Y-115950333D01*
X66222477Y-115997952D01*
X66270096Y-116045571D01*
X66317715Y-116140810D01*
X66317715Y-116378905D01*
X66270096Y-116474143D01*
X66222477Y-116521762D01*
X66127239Y-116569381D01*
X65841524Y-116569381D01*
X65746286Y-116521762D01*
X65698667Y-116474143D01*
X64793905Y-126729381D02*
X64793905Y-125729381D01*
X65032000Y-125729381D01*
X65174858Y-125777000D01*
X65270096Y-125872238D01*
X65317715Y-125967476D01*
X65365334Y-126157952D01*
X65365334Y-126300810D01*
X65317715Y-126491286D01*
X65270096Y-126586524D01*
X65174858Y-126681762D01*
X65032000Y-126729381D01*
X64793905Y-126729381D01*
X66222477Y-126062714D02*
X66222477Y-126729381D01*
X65984381Y-125681762D02*
X65746286Y-126396048D01*
X66365334Y-126396048D01*
X64793905Y-111489381D02*
X64793905Y-110489381D01*
X65032000Y-110489381D01*
X65174858Y-110537000D01*
X65270096Y-110632238D01*
X65317715Y-110727476D01*
X65365334Y-110917952D01*
X65365334Y-111060810D01*
X65317715Y-111251286D01*
X65270096Y-111346524D01*
X65174858Y-111441762D01*
X65032000Y-111489381D01*
X64793905Y-111489381D01*
X66270096Y-110489381D02*
X65793905Y-110489381D01*
X65746286Y-110965571D01*
X65793905Y-110917952D01*
X65889143Y-110870333D01*
X66127239Y-110870333D01*
X66222477Y-110917952D01*
X66270096Y-110965571D01*
X66317715Y-111060810D01*
X66317715Y-111298905D01*
X66270096Y-111394143D01*
X66222477Y-111441762D01*
X66127239Y-111489381D01*
X65889143Y-111489381D01*
X65793905Y-111441762D01*
X65746286Y-111394143D01*
X70127905Y-79502381D02*
X70127905Y-78502381D01*
X70366000Y-78502381D01*
X70508858Y-78550000D01*
X70604096Y-78645238D01*
X70651715Y-78740476D01*
X70699334Y-78930952D01*
X70699334Y-79073810D01*
X70651715Y-79264286D01*
X70604096Y-79359524D01*
X70508858Y-79454762D01*
X70366000Y-79502381D01*
X70127905Y-79502381D01*
X71556477Y-78502381D02*
X71366000Y-78502381D01*
X71270762Y-78550000D01*
X71223143Y-78597619D01*
X71127905Y-78740476D01*
X71080286Y-78930952D01*
X71080286Y-79311905D01*
X71127905Y-79407143D01*
X71175524Y-79454762D01*
X71270762Y-79502381D01*
X71461239Y-79502381D01*
X71556477Y-79454762D01*
X71604096Y-79407143D01*
X71651715Y-79311905D01*
X71651715Y-79073810D01*
X71604096Y-78978571D01*
X71556477Y-78930952D01*
X71461239Y-78883333D01*
X71270762Y-78883333D01*
X71175524Y-78930952D01*
X71127905Y-78978571D01*
X71080286Y-79073810D01*
X70127905Y-83002381D02*
X70127905Y-82002381D01*
X70366000Y-82002381D01*
X70508858Y-82050000D01*
X70604096Y-82145238D01*
X70651715Y-82240476D01*
X70699334Y-82430952D01*
X70699334Y-82573810D01*
X70651715Y-82764286D01*
X70604096Y-82859524D01*
X70508858Y-82954762D01*
X70366000Y-83002381D01*
X70127905Y-83002381D01*
X71556477Y-82002381D02*
X71366000Y-82002381D01*
X71270762Y-82050000D01*
X71223143Y-82097619D01*
X71127905Y-82240476D01*
X71080286Y-82430952D01*
X71080286Y-82811905D01*
X71127905Y-82907143D01*
X71175524Y-82954762D01*
X71270762Y-83002381D01*
X71461239Y-83002381D01*
X71556477Y-82954762D01*
X71604096Y-82907143D01*
X71651715Y-82811905D01*
X71651715Y-82573810D01*
X71604096Y-82478571D01*
X71556477Y-82430952D01*
X71461239Y-82383333D01*
X71270762Y-82383333D01*
X71175524Y-82430952D01*
X71127905Y-82478571D01*
X71080286Y-82573810D01*
X43902381Y-98758333D02*
X44616667Y-98758333D01*
X44759524Y-98805953D01*
X44854762Y-98901191D01*
X44902381Y-99044048D01*
X44902381Y-99139286D01*
X44902381Y-97758333D02*
X44902381Y-98329762D01*
X44902381Y-98044048D02*
X43902381Y-98044048D01*
X44045238Y-98139286D01*
X44140476Y-98234524D01*
X44188095Y-98329762D01*
X50466667Y-126198381D02*
X50466667Y-126912667D01*
X50419047Y-127055524D01*
X50323809Y-127150762D01*
X50180952Y-127198381D01*
X50085714Y-127198381D01*
X51466667Y-127198381D02*
X50895238Y-127198381D01*
X51180952Y-127198381D02*
X51180952Y-126198381D01*
X51085714Y-126341238D01*
X50990476Y-126436476D01*
X50895238Y-126484095D01*
X84502667Y-74934381D02*
X84502667Y-75648667D01*
X84455047Y-75791524D01*
X84359809Y-75886762D01*
X84216952Y-75934381D01*
X84121714Y-75934381D01*
X84931238Y-75029619D02*
X84978857Y-74982000D01*
X85074095Y-74934381D01*
X85312191Y-74934381D01*
X85407429Y-74982000D01*
X85455048Y-75029619D01*
X85502667Y-75124857D01*
X85502667Y-75220095D01*
X85455048Y-75362952D01*
X84883619Y-75934381D01*
X85502667Y-75934381D01*
X60285334Y-105099381D02*
X59952000Y-104623190D01*
X59713905Y-105099381D02*
X59713905Y-104099381D01*
X60094858Y-104099381D01*
X60190096Y-104147000D01*
X60237715Y-104194619D01*
X60285334Y-104289857D01*
X60285334Y-104432714D01*
X60237715Y-104527952D01*
X60190096Y-104575571D01*
X60094858Y-104623190D01*
X59713905Y-104623190D01*
X61237715Y-105099381D02*
X60666286Y-105099381D01*
X60952000Y-105099381D02*
X60952000Y-104099381D01*
X60856762Y-104242238D01*
X60761524Y-104337476D01*
X60666286Y-104385095D01*
D14*
X60368667Y-103223190D02*
X60202000Y-102985095D01*
X60082953Y-103223190D02*
X60082953Y-102723190D01*
X60273429Y-102723190D01*
X60321048Y-102747000D01*
X60344857Y-102770810D01*
X60368667Y-102818429D01*
X60368667Y-102889857D01*
X60344857Y-102937476D01*
X60321048Y-102961286D01*
X60273429Y-102985095D01*
X60082953Y-102985095D01*
X60844857Y-103223190D02*
X60559143Y-103223190D01*
X60702000Y-103223190D02*
X60702000Y-102723190D01*
X60654381Y-102794619D01*
X60606762Y-102842238D01*
X60559143Y-102866048D01*
D12*
X60285334Y-120339381D02*
X59952000Y-119863190D01*
X59713905Y-120339381D02*
X59713905Y-119339381D01*
X60094858Y-119339381D01*
X60190096Y-119387000D01*
X60237715Y-119434619D01*
X60285334Y-119529857D01*
X60285334Y-119672714D01*
X60237715Y-119767952D01*
X60190096Y-119815571D01*
X60094858Y-119863190D01*
X59713905Y-119863190D01*
X60666286Y-119434619D02*
X60713905Y-119387000D01*
X60809143Y-119339381D01*
X61047239Y-119339381D01*
X61142477Y-119387000D01*
X61190096Y-119434619D01*
X61237715Y-119529857D01*
X61237715Y-119625095D01*
X61190096Y-119767952D01*
X60618667Y-120339381D01*
X61237715Y-120339381D01*
D14*
X60368667Y-118463190D02*
X60202000Y-118225095D01*
X60082953Y-118463190D02*
X60082953Y-117963190D01*
X60273429Y-117963190D01*
X60321048Y-117987000D01*
X60344857Y-118010810D01*
X60368667Y-118058429D01*
X60368667Y-118129857D01*
X60344857Y-118177476D01*
X60321048Y-118201286D01*
X60273429Y-118225095D01*
X60082953Y-118225095D01*
X60559143Y-118010810D02*
X60582953Y-117987000D01*
X60630572Y-117963190D01*
X60749619Y-117963190D01*
X60797238Y-117987000D01*
X60821048Y-118010810D01*
X60844857Y-118058429D01*
X60844857Y-118106048D01*
X60821048Y-118177476D01*
X60535334Y-118463190D01*
X60844857Y-118463190D01*
D12*
X60285334Y-115259381D02*
X59952000Y-114783190D01*
X59713905Y-115259381D02*
X59713905Y-114259381D01*
X60094858Y-114259381D01*
X60190096Y-114307000D01*
X60237715Y-114354619D01*
X60285334Y-114449857D01*
X60285334Y-114592714D01*
X60237715Y-114687952D01*
X60190096Y-114735571D01*
X60094858Y-114783190D01*
X59713905Y-114783190D01*
X60618667Y-114259381D02*
X61237715Y-114259381D01*
X60904381Y-114640333D01*
X61047239Y-114640333D01*
X61142477Y-114687952D01*
X61190096Y-114735571D01*
X61237715Y-114830810D01*
X61237715Y-115068905D01*
X61190096Y-115164143D01*
X61142477Y-115211762D01*
X61047239Y-115259381D01*
X60761524Y-115259381D01*
X60666286Y-115211762D01*
X60618667Y-115164143D01*
D14*
X60368667Y-113383190D02*
X60202000Y-113145095D01*
X60082953Y-113383190D02*
X60082953Y-112883190D01*
X60273429Y-112883190D01*
X60321048Y-112907000D01*
X60344857Y-112930810D01*
X60368667Y-112978429D01*
X60368667Y-113049857D01*
X60344857Y-113097476D01*
X60321048Y-113121286D01*
X60273429Y-113145095D01*
X60082953Y-113145095D01*
X60535334Y-112883190D02*
X60844857Y-112883190D01*
X60678191Y-113073667D01*
X60749619Y-113073667D01*
X60797238Y-113097476D01*
X60821048Y-113121286D01*
X60844857Y-113168905D01*
X60844857Y-113287952D01*
X60821048Y-113335571D01*
X60797238Y-113359381D01*
X60749619Y-113383190D01*
X60606762Y-113383190D01*
X60559143Y-113359381D01*
X60535334Y-113335571D01*
D12*
X60285334Y-125419381D02*
X59952000Y-124943190D01*
X59713905Y-125419381D02*
X59713905Y-124419381D01*
X60094858Y-124419381D01*
X60190096Y-124467000D01*
X60237715Y-124514619D01*
X60285334Y-124609857D01*
X60285334Y-124752714D01*
X60237715Y-124847952D01*
X60190096Y-124895571D01*
X60094858Y-124943190D01*
X59713905Y-124943190D01*
X61142477Y-124752714D02*
X61142477Y-125419381D01*
X60904381Y-124371762D02*
X60666286Y-125086048D01*
X61285334Y-125086048D01*
D14*
X60368667Y-123543190D02*
X60202000Y-123305095D01*
X60082953Y-123543190D02*
X60082953Y-123043190D01*
X60273429Y-123043190D01*
X60321048Y-123067000D01*
X60344857Y-123090810D01*
X60368667Y-123138429D01*
X60368667Y-123209857D01*
X60344857Y-123257476D01*
X60321048Y-123281286D01*
X60273429Y-123305095D01*
X60082953Y-123305095D01*
X60797238Y-123209857D02*
X60797238Y-123543190D01*
X60678191Y-123019381D02*
X60559143Y-123376524D01*
X60868667Y-123376524D01*
D12*
X60285334Y-110179381D02*
X59952000Y-109703190D01*
X59713905Y-110179381D02*
X59713905Y-109179381D01*
X60094858Y-109179381D01*
X60190096Y-109227000D01*
X60237715Y-109274619D01*
X60285334Y-109369857D01*
X60285334Y-109512714D01*
X60237715Y-109607952D01*
X60190096Y-109655571D01*
X60094858Y-109703190D01*
X59713905Y-109703190D01*
X61190096Y-109179381D02*
X60713905Y-109179381D01*
X60666286Y-109655571D01*
X60713905Y-109607952D01*
X60809143Y-109560333D01*
X61047239Y-109560333D01*
X61142477Y-109607952D01*
X61190096Y-109655571D01*
X61237715Y-109750810D01*
X61237715Y-109988905D01*
X61190096Y-110084143D01*
X61142477Y-110131762D01*
X61047239Y-110179381D01*
X60809143Y-110179381D01*
X60713905Y-110131762D01*
X60666286Y-110084143D01*
D14*
X60368667Y-108303190D02*
X60202000Y-108065095D01*
X60082953Y-108303190D02*
X60082953Y-107803190D01*
X60273429Y-107803190D01*
X60321048Y-107827000D01*
X60344857Y-107850810D01*
X60368667Y-107898429D01*
X60368667Y-107969857D01*
X60344857Y-108017476D01*
X60321048Y-108041286D01*
X60273429Y-108065095D01*
X60082953Y-108065095D01*
X60821048Y-107803190D02*
X60582953Y-107803190D01*
X60559143Y-108041286D01*
X60582953Y-108017476D01*
X60630572Y-107993667D01*
X60749619Y-107993667D01*
X60797238Y-108017476D01*
X60821048Y-108041286D01*
X60844857Y-108088905D01*
X60844857Y-108207952D01*
X60821048Y-108255571D01*
X60797238Y-108279381D01*
X60749619Y-108303190D01*
X60630572Y-108303190D01*
X60582953Y-108279381D01*
X60559143Y-108255571D01*
D12*
X61809334Y-72460381D02*
X61476000Y-71984190D01*
X61237905Y-72460381D02*
X61237905Y-71460381D01*
X61618858Y-71460381D01*
X61714096Y-71508000D01*
X61761715Y-71555619D01*
X61809334Y-71650857D01*
X61809334Y-71793714D01*
X61761715Y-71888952D01*
X61714096Y-71936571D01*
X61618858Y-71984190D01*
X61237905Y-71984190D01*
X62666477Y-71460381D02*
X62476000Y-71460381D01*
X62380762Y-71508000D01*
X62333143Y-71555619D01*
X62237905Y-71698476D01*
X62190286Y-71888952D01*
X62190286Y-72269905D01*
X62237905Y-72365143D01*
X62285524Y-72412762D01*
X62380762Y-72460381D01*
X62571239Y-72460381D01*
X62666477Y-72412762D01*
X62714096Y-72365143D01*
X62761715Y-72269905D01*
X62761715Y-72031810D01*
X62714096Y-71936571D01*
X62666477Y-71888952D01*
X62571239Y-71841333D01*
X62380762Y-71841333D01*
X62285524Y-71888952D01*
X62237905Y-71936571D01*
X62190286Y-72031810D01*
D13*
X61926000Y-70493714D02*
X61826000Y-70350857D01*
X61754572Y-70493714D02*
X61754572Y-70193714D01*
X61868857Y-70193714D01*
X61897429Y-70208000D01*
X61911714Y-70222286D01*
X61926000Y-70250857D01*
X61926000Y-70293714D01*
X61911714Y-70322286D01*
X61897429Y-70336571D01*
X61868857Y-70350857D01*
X61754572Y-70350857D01*
X62183143Y-70193714D02*
X62126000Y-70193714D01*
X62097429Y-70208000D01*
X62083143Y-70222286D01*
X62054572Y-70265143D01*
X62040286Y-70322286D01*
X62040286Y-70436571D01*
X62054572Y-70465143D01*
X62068857Y-70479429D01*
X62097429Y-70493714D01*
X62154572Y-70493714D01*
X62183143Y-70479429D01*
X62197429Y-70465143D01*
X62211714Y-70436571D01*
X62211714Y-70365143D01*
X62197429Y-70336571D01*
X62183143Y-70322286D01*
X62154572Y-70308000D01*
X62097429Y-70308000D01*
X62068857Y-70322286D01*
X62054572Y-70336571D01*
X62040286Y-70365143D01*
D12*
X61809334Y-74365381D02*
X61476000Y-73889190D01*
X61237905Y-74365381D02*
X61237905Y-73365381D01*
X61618858Y-73365381D01*
X61714096Y-73413000D01*
X61761715Y-73460619D01*
X61809334Y-73555857D01*
X61809334Y-73698714D01*
X61761715Y-73793952D01*
X61714096Y-73841571D01*
X61618858Y-73889190D01*
X61237905Y-73889190D01*
X62142667Y-73365381D02*
X62809334Y-73365381D01*
X62380762Y-74365381D01*
D13*
X61926000Y-72398714D02*
X61826000Y-72255857D01*
X61754572Y-72398714D02*
X61754572Y-72098714D01*
X61868857Y-72098714D01*
X61897429Y-72113000D01*
X61911714Y-72127286D01*
X61926000Y-72155857D01*
X61926000Y-72198714D01*
X61911714Y-72227286D01*
X61897429Y-72241571D01*
X61868857Y-72255857D01*
X61754572Y-72255857D01*
X62026000Y-72098714D02*
X62226000Y-72098714D01*
X62097429Y-72398714D01*
D12*
X61809334Y-76270381D02*
X61476000Y-75794190D01*
X61237905Y-76270381D02*
X61237905Y-75270381D01*
X61618858Y-75270381D01*
X61714096Y-75318000D01*
X61761715Y-75365619D01*
X61809334Y-75460857D01*
X61809334Y-75603714D01*
X61761715Y-75698952D01*
X61714096Y-75746571D01*
X61618858Y-75794190D01*
X61237905Y-75794190D01*
X62380762Y-75698952D02*
X62285524Y-75651333D01*
X62237905Y-75603714D01*
X62190286Y-75508476D01*
X62190286Y-75460857D01*
X62237905Y-75365619D01*
X62285524Y-75318000D01*
X62380762Y-75270381D01*
X62571239Y-75270381D01*
X62666477Y-75318000D01*
X62714096Y-75365619D01*
X62761715Y-75460857D01*
X62761715Y-75508476D01*
X62714096Y-75603714D01*
X62666477Y-75651333D01*
X62571239Y-75698952D01*
X62380762Y-75698952D01*
X62285524Y-75746571D01*
X62237905Y-75794190D01*
X62190286Y-75889429D01*
X62190286Y-76079905D01*
X62237905Y-76175143D01*
X62285524Y-76222762D01*
X62380762Y-76270381D01*
X62571239Y-76270381D01*
X62666477Y-76222762D01*
X62714096Y-76175143D01*
X62761715Y-76079905D01*
X62761715Y-75889429D01*
X62714096Y-75794190D01*
X62666477Y-75746571D01*
X62571239Y-75698952D01*
D13*
X61926000Y-74303714D02*
X61826000Y-74160857D01*
X61754572Y-74303714D02*
X61754572Y-74003714D01*
X61868857Y-74003714D01*
X61897429Y-74018000D01*
X61911714Y-74032286D01*
X61926000Y-74060857D01*
X61926000Y-74103714D01*
X61911714Y-74132286D01*
X61897429Y-74146571D01*
X61868857Y-74160857D01*
X61754572Y-74160857D01*
X62097429Y-74132286D02*
X62068857Y-74118000D01*
X62054572Y-74103714D01*
X62040286Y-74075143D01*
X62040286Y-74060857D01*
X62054572Y-74032286D01*
X62068857Y-74018000D01*
X62097429Y-74003714D01*
X62154572Y-74003714D01*
X62183143Y-74018000D01*
X62197429Y-74032286D01*
X62211714Y-74060857D01*
X62211714Y-74075143D01*
X62197429Y-74103714D01*
X62183143Y-74118000D01*
X62154572Y-74132286D01*
X62097429Y-74132286D01*
X62068857Y-74146571D01*
X62054572Y-74160857D01*
X62040286Y-74189429D01*
X62040286Y-74246571D01*
X62054572Y-74275143D01*
X62068857Y-74289429D01*
X62097429Y-74303714D01*
X62154572Y-74303714D01*
X62183143Y-74289429D01*
X62197429Y-74275143D01*
X62211714Y-74246571D01*
X62211714Y-74189429D01*
X62197429Y-74160857D01*
X62183143Y-74146571D01*
X62154572Y-74132286D01*
D12*
X61809334Y-74748381D02*
X61476000Y-74272190D01*
X61237905Y-74748381D02*
X61237905Y-73748381D01*
X61618858Y-73748381D01*
X61714096Y-73796000D01*
X61761715Y-73843619D01*
X61809334Y-73938857D01*
X61809334Y-74081714D01*
X61761715Y-74176952D01*
X61714096Y-74224571D01*
X61618858Y-74272190D01*
X61237905Y-74272190D01*
X62285524Y-74748381D02*
X62476000Y-74748381D01*
X62571239Y-74700762D01*
X62618858Y-74653143D01*
X62714096Y-74510286D01*
X62761715Y-74319810D01*
X62761715Y-73938857D01*
X62714096Y-73843619D01*
X62666477Y-73796000D01*
X62571239Y-73748381D01*
X62380762Y-73748381D01*
X62285524Y-73796000D01*
X62237905Y-73843619D01*
X62190286Y-73938857D01*
X62190286Y-74176952D01*
X62237905Y-74272190D01*
X62285524Y-74319810D01*
X62380762Y-74367429D01*
X62571239Y-74367429D01*
X62666477Y-74319810D01*
X62714096Y-74272190D01*
X62761715Y-74176952D01*
D13*
X61926000Y-76081714D02*
X61826000Y-75938857D01*
X61754572Y-76081714D02*
X61754572Y-75781714D01*
X61868857Y-75781714D01*
X61897429Y-75796000D01*
X61911714Y-75810286D01*
X61926000Y-75838857D01*
X61926000Y-75881714D01*
X61911714Y-75910286D01*
X61897429Y-75924571D01*
X61868857Y-75938857D01*
X61754572Y-75938857D01*
X62068857Y-76081714D02*
X62126000Y-76081714D01*
X62154572Y-76067429D01*
X62168857Y-76053143D01*
X62197429Y-76010286D01*
X62211714Y-75953143D01*
X62211714Y-75838857D01*
X62197429Y-75810286D01*
X62183143Y-75796000D01*
X62154572Y-75781714D01*
X62097429Y-75781714D01*
X62068857Y-75796000D01*
X62054572Y-75810286D01*
X62040286Y-75838857D01*
X62040286Y-75910286D01*
X62054572Y-75938857D01*
X62068857Y-75953143D01*
X62097429Y-75967429D01*
X62154572Y-75967429D01*
X62183143Y-75953143D01*
X62197429Y-75938857D01*
X62211714Y-75910286D01*
D12*
X79113143Y-76270381D02*
X78779809Y-75794190D01*
X78541714Y-76270381D02*
X78541714Y-75270381D01*
X78922667Y-75270381D01*
X79017905Y-75318000D01*
X79065524Y-75365619D01*
X79113143Y-75460857D01*
X79113143Y-75603714D01*
X79065524Y-75698952D01*
X79017905Y-75746571D01*
X78922667Y-75794190D01*
X78541714Y-75794190D01*
X80065524Y-76270381D02*
X79494095Y-76270381D01*
X79779809Y-76270381D02*
X79779809Y-75270381D01*
X79684571Y-75413238D01*
X79589333Y-75508476D01*
X79494095Y-75556095D01*
X80684571Y-75270381D02*
X80779810Y-75270381D01*
X80875048Y-75318000D01*
X80922667Y-75365619D01*
X80970286Y-75460857D01*
X81017905Y-75651333D01*
X81017905Y-75889429D01*
X80970286Y-76079905D01*
X80922667Y-76175143D01*
X80875048Y-76222762D01*
X80779810Y-76270381D01*
X80684571Y-76270381D01*
X80589333Y-76222762D01*
X80541714Y-76175143D01*
X80494095Y-76079905D01*
X80446476Y-75889429D01*
X80446476Y-75651333D01*
X80494095Y-75460857D01*
X80541714Y-75365619D01*
X80589333Y-75318000D01*
X80684571Y-75270381D01*
D13*
X79563143Y-74303714D02*
X79463143Y-74160857D01*
X79391715Y-74303714D02*
X79391715Y-74003714D01*
X79506000Y-74003714D01*
X79534572Y-74018000D01*
X79548857Y-74032286D01*
X79563143Y-74060857D01*
X79563143Y-74103714D01*
X79548857Y-74132286D01*
X79534572Y-74146571D01*
X79506000Y-74160857D01*
X79391715Y-74160857D01*
X79848857Y-74303714D02*
X79677429Y-74303714D01*
X79763143Y-74303714D02*
X79763143Y-74003714D01*
X79734572Y-74046571D01*
X79706000Y-74075143D01*
X79677429Y-74089429D01*
X80034571Y-74003714D02*
X80063143Y-74003714D01*
X80091714Y-74018000D01*
X80106000Y-74032286D01*
X80120286Y-74060857D01*
X80134571Y-74118000D01*
X80134571Y-74189429D01*
X80120286Y-74246571D01*
X80106000Y-74275143D01*
X80091714Y-74289429D01*
X80063143Y-74303714D01*
X80034571Y-74303714D01*
X80006000Y-74289429D01*
X79991714Y-74275143D01*
X79977429Y-74246571D01*
X79963143Y-74189429D01*
X79963143Y-74118000D01*
X79977429Y-74060857D01*
X79991714Y-74032286D01*
X80006000Y-74018000D01*
X80034571Y-74003714D01*
D12*
X79113143Y-72714381D02*
X78779809Y-72238190D01*
X78541714Y-72714381D02*
X78541714Y-71714381D01*
X78922667Y-71714381D01*
X79017905Y-71762000D01*
X79065524Y-71809619D01*
X79113143Y-71904857D01*
X79113143Y-72047714D01*
X79065524Y-72142952D01*
X79017905Y-72190571D01*
X78922667Y-72238190D01*
X78541714Y-72238190D01*
X80065524Y-72714381D02*
X79494095Y-72714381D01*
X79779809Y-72714381D02*
X79779809Y-71714381D01*
X79684571Y-71857238D01*
X79589333Y-71952476D01*
X79494095Y-72000095D01*
X81017905Y-72714381D02*
X80446476Y-72714381D01*
X80732190Y-72714381D02*
X80732190Y-71714381D01*
X80636952Y-71857238D01*
X80541714Y-71952476D01*
X80446476Y-72000095D01*
D13*
X79563143Y-70747714D02*
X79463143Y-70604857D01*
X79391715Y-70747714D02*
X79391715Y-70447714D01*
X79506000Y-70447714D01*
X79534572Y-70462000D01*
X79548857Y-70476286D01*
X79563143Y-70504857D01*
X79563143Y-70547714D01*
X79548857Y-70576286D01*
X79534572Y-70590571D01*
X79506000Y-70604857D01*
X79391715Y-70604857D01*
X79848857Y-70747714D02*
X79677429Y-70747714D01*
X79763143Y-70747714D02*
X79763143Y-70447714D01*
X79734572Y-70490571D01*
X79706000Y-70519143D01*
X79677429Y-70533429D01*
X80134571Y-70747714D02*
X79963143Y-70747714D01*
X80048857Y-70747714D02*
X80048857Y-70447714D01*
X80020286Y-70490571D01*
X79991714Y-70519143D01*
X79963143Y-70533429D01*
D12*
X79113143Y-78048381D02*
X78779809Y-77572190D01*
X78541714Y-78048381D02*
X78541714Y-77048381D01*
X78922667Y-77048381D01*
X79017905Y-77096000D01*
X79065524Y-77143619D01*
X79113143Y-77238857D01*
X79113143Y-77381714D01*
X79065524Y-77476952D01*
X79017905Y-77524571D01*
X78922667Y-77572190D01*
X78541714Y-77572190D01*
X80065524Y-78048381D02*
X79494095Y-78048381D01*
X79779809Y-78048381D02*
X79779809Y-77048381D01*
X79684571Y-77191238D01*
X79589333Y-77286476D01*
X79494095Y-77334095D01*
X80446476Y-77143619D02*
X80494095Y-77096000D01*
X80589333Y-77048381D01*
X80827429Y-77048381D01*
X80922667Y-77096000D01*
X80970286Y-77143619D01*
X81017905Y-77238857D01*
X81017905Y-77334095D01*
X80970286Y-77476952D01*
X80398857Y-78048381D01*
X81017905Y-78048381D01*
D13*
X79563143Y-76081714D02*
X79463143Y-75938857D01*
X79391715Y-76081714D02*
X79391715Y-75781714D01*
X79506000Y-75781714D01*
X79534572Y-75796000D01*
X79548857Y-75810286D01*
X79563143Y-75838857D01*
X79563143Y-75881714D01*
X79548857Y-75910286D01*
X79534572Y-75924571D01*
X79506000Y-75938857D01*
X79391715Y-75938857D01*
X79848857Y-76081714D02*
X79677429Y-76081714D01*
X79763143Y-76081714D02*
X79763143Y-75781714D01*
X79734572Y-75824571D01*
X79706000Y-75853143D01*
X79677429Y-75867429D01*
X79963143Y-75810286D02*
X79977429Y-75796000D01*
X80006000Y-75781714D01*
X80077429Y-75781714D01*
X80106000Y-75796000D01*
X80120286Y-75810286D01*
X80134571Y-75838857D01*
X80134571Y-75867429D01*
X80120286Y-75910286D01*
X79948857Y-76081714D01*
X80134571Y-76081714D01*
D12*
X79113143Y-74492381D02*
X78779809Y-74016190D01*
X78541714Y-74492381D02*
X78541714Y-73492381D01*
X78922667Y-73492381D01*
X79017905Y-73540000D01*
X79065524Y-73587619D01*
X79113143Y-73682857D01*
X79113143Y-73825714D01*
X79065524Y-73920952D01*
X79017905Y-73968571D01*
X78922667Y-74016190D01*
X78541714Y-74016190D01*
X80065524Y-74492381D02*
X79494095Y-74492381D01*
X79779809Y-74492381D02*
X79779809Y-73492381D01*
X79684571Y-73635238D01*
X79589333Y-73730476D01*
X79494095Y-73778095D01*
X80398857Y-73492381D02*
X81017905Y-73492381D01*
X80684571Y-73873333D01*
X80827429Y-73873333D01*
X80922667Y-73920952D01*
X80970286Y-73968571D01*
X81017905Y-74063810D01*
X81017905Y-74301905D01*
X80970286Y-74397143D01*
X80922667Y-74444762D01*
X80827429Y-74492381D01*
X80541714Y-74492381D01*
X80446476Y-74444762D01*
X80398857Y-74397143D01*
D13*
X79563143Y-72525714D02*
X79463143Y-72382857D01*
X79391715Y-72525714D02*
X79391715Y-72225714D01*
X79506000Y-72225714D01*
X79534572Y-72240000D01*
X79548857Y-72254286D01*
X79563143Y-72282857D01*
X79563143Y-72325714D01*
X79548857Y-72354286D01*
X79534572Y-72368571D01*
X79506000Y-72382857D01*
X79391715Y-72382857D01*
X79848857Y-72525714D02*
X79677429Y-72525714D01*
X79763143Y-72525714D02*
X79763143Y-72225714D01*
X79734572Y-72268571D01*
X79706000Y-72297143D01*
X79677429Y-72311429D01*
X79948857Y-72225714D02*
X80134571Y-72225714D01*
X80034571Y-72340000D01*
X80077429Y-72340000D01*
X80106000Y-72354286D01*
X80120286Y-72368571D01*
X80134571Y-72397143D01*
X80134571Y-72468571D01*
X80120286Y-72497143D01*
X80106000Y-72511429D01*
X80077429Y-72525714D01*
X79991714Y-72525714D01*
X79963143Y-72511429D01*
X79948857Y-72497143D01*
D12*
X78444762Y-112837381D02*
X78111428Y-112361190D01*
X77873333Y-112837381D02*
X77873333Y-111837381D01*
X78254286Y-111837381D01*
X78349524Y-111885000D01*
X78397143Y-111932619D01*
X78444762Y-112027857D01*
X78444762Y-112170714D01*
X78397143Y-112265952D01*
X78349524Y-112313571D01*
X78254286Y-112361190D01*
X77873333Y-112361190D01*
X78730476Y-111837381D02*
X79063809Y-112837381D01*
X79397143Y-111837381D01*
X80254286Y-112837381D02*
X79682857Y-112837381D01*
X79968571Y-112837381D02*
X79968571Y-111837381D01*
X79873333Y-111980238D01*
X79778095Y-112075476D01*
X79682857Y-112123095D01*
X69532667Y-77964762D02*
X69675524Y-78012381D01*
X69913620Y-78012381D01*
X70008858Y-77964762D01*
X70056477Y-77917143D01*
X70104096Y-77821905D01*
X70104096Y-77726667D01*
X70056477Y-77631429D01*
X70008858Y-77583810D01*
X69913620Y-77536190D01*
X69723143Y-77488571D01*
X69627905Y-77440952D01*
X69580286Y-77393333D01*
X69532667Y-77298095D01*
X69532667Y-77202857D01*
X69580286Y-77107619D01*
X69627905Y-77060000D01*
X69723143Y-77012381D01*
X69961239Y-77012381D01*
X70104096Y-77060000D01*
X70437429Y-77012381D02*
X70675524Y-78012381D01*
X70866001Y-77298095D01*
X71056477Y-78012381D01*
X71294572Y-77012381D01*
X72199334Y-78012381D02*
X71627905Y-78012381D01*
X71913619Y-78012381D02*
X71913619Y-77012381D01*
X71818381Y-77155238D01*
X71723143Y-77250476D01*
X71627905Y-77298095D01*
X69532667Y-77964762D02*
X69675524Y-78012381D01*
X69913620Y-78012381D01*
X70008858Y-77964762D01*
X70056477Y-77917143D01*
X70104096Y-77821905D01*
X70104096Y-77726667D01*
X70056477Y-77631429D01*
X70008858Y-77583810D01*
X69913620Y-77536190D01*
X69723143Y-77488571D01*
X69627905Y-77440952D01*
X69580286Y-77393333D01*
X69532667Y-77298095D01*
X69532667Y-77202857D01*
X69580286Y-77107619D01*
X69627905Y-77060000D01*
X69723143Y-77012381D01*
X69961239Y-77012381D01*
X70104096Y-77060000D01*
X70437429Y-77012381D02*
X70675524Y-78012381D01*
X70866001Y-77298095D01*
X71056477Y-78012381D01*
X71294572Y-77012381D01*
X72199334Y-78012381D02*
X71627905Y-78012381D01*
X71913619Y-78012381D02*
X71913619Y-77012381D01*
X71818381Y-77155238D01*
X71723143Y-77250476D01*
X71627905Y-77298095D01*
X66280762Y-83883333D02*
X66328381Y-83740476D01*
X66328381Y-83502380D01*
X66280762Y-83407142D01*
X66233143Y-83359523D01*
X66137905Y-83311904D01*
X66042667Y-83311904D01*
X65947429Y-83359523D01*
X65899810Y-83407142D01*
X65852190Y-83502380D01*
X65804571Y-83692857D01*
X65756952Y-83788095D01*
X65709333Y-83835714D01*
X65614095Y-83883333D01*
X65518857Y-83883333D01*
X65423619Y-83835714D01*
X65376000Y-83788095D01*
X65328381Y-83692857D01*
X65328381Y-83454761D01*
X65376000Y-83311904D01*
X65328381Y-82978571D02*
X66328381Y-82740476D01*
X65614095Y-82549999D01*
X66328381Y-82359523D01*
X65328381Y-82121428D01*
X65423619Y-81788095D02*
X65376000Y-81740476D01*
X65328381Y-81645238D01*
X65328381Y-81407142D01*
X65376000Y-81311904D01*
X65423619Y-81264285D01*
X65518857Y-81216666D01*
X65614095Y-81216666D01*
X65756952Y-81264285D01*
X66328381Y-81835714D01*
X66328381Y-81216666D01*
X66280762Y-83883333D02*
X66328381Y-83740476D01*
X66328381Y-83502380D01*
X66280762Y-83407142D01*
X66233143Y-83359523D01*
X66137905Y-83311904D01*
X66042667Y-83311904D01*
X65947429Y-83359523D01*
X65899810Y-83407142D01*
X65852190Y-83502380D01*
X65804571Y-83692857D01*
X65756952Y-83788095D01*
X65709333Y-83835714D01*
X65614095Y-83883333D01*
X65518857Y-83883333D01*
X65423619Y-83835714D01*
X65376000Y-83788095D01*
X65328381Y-83692857D01*
X65328381Y-83454761D01*
X65376000Y-83311904D01*
X65328381Y-82978571D02*
X66328381Y-82740476D01*
X65614095Y-82549999D01*
X66328381Y-82359523D01*
X65328381Y-82121428D01*
X65423619Y-81788095D02*
X65376000Y-81740476D01*
X65328381Y-81645238D01*
X65328381Y-81407142D01*
X65376000Y-81311904D01*
X65423619Y-81264285D01*
X65518857Y-81216666D01*
X65614095Y-81216666D01*
X65756952Y-81264285D01*
X66328381Y-81835714D01*
X66328381Y-81216666D01*
X76260762Y-83883333D02*
X76308381Y-83740476D01*
X76308381Y-83502380D01*
X76260762Y-83407142D01*
X76213143Y-83359523D01*
X76117905Y-83311904D01*
X76022667Y-83311904D01*
X75927429Y-83359523D01*
X75879810Y-83407142D01*
X75832190Y-83502380D01*
X75784571Y-83692857D01*
X75736952Y-83788095D01*
X75689333Y-83835714D01*
X75594095Y-83883333D01*
X75498857Y-83883333D01*
X75403619Y-83835714D01*
X75356000Y-83788095D01*
X75308381Y-83692857D01*
X75308381Y-83454761D01*
X75356000Y-83311904D01*
X75308381Y-82978571D02*
X76308381Y-82740476D01*
X75594095Y-82549999D01*
X76308381Y-82359523D01*
X75308381Y-82121428D01*
X75308381Y-81835714D02*
X75308381Y-81216666D01*
X75689333Y-81550000D01*
X75689333Y-81407142D01*
X75736952Y-81311904D01*
X75784571Y-81264285D01*
X75879810Y-81216666D01*
X76117905Y-81216666D01*
X76213143Y-81264285D01*
X76260762Y-81311904D01*
X76308381Y-81407142D01*
X76308381Y-81692857D01*
X76260762Y-81788095D01*
X76213143Y-81835714D01*
X76260762Y-83883333D02*
X76308381Y-83740476D01*
X76308381Y-83502380D01*
X76260762Y-83407142D01*
X76213143Y-83359523D01*
X76117905Y-83311904D01*
X76022667Y-83311904D01*
X75927429Y-83359523D01*
X75879810Y-83407142D01*
X75832190Y-83502380D01*
X75784571Y-83692857D01*
X75736952Y-83788095D01*
X75689333Y-83835714D01*
X75594095Y-83883333D01*
X75498857Y-83883333D01*
X75403619Y-83835714D01*
X75356000Y-83788095D01*
X75308381Y-83692857D01*
X75308381Y-83454761D01*
X75356000Y-83311904D01*
X75308381Y-82978571D02*
X76308381Y-82740476D01*
X75594095Y-82549999D01*
X76308381Y-82359523D01*
X75308381Y-82121428D01*
X75308381Y-81835714D02*
X75308381Y-81216666D01*
X75689333Y-81550000D01*
X75689333Y-81407142D01*
X75736952Y-81311904D01*
X75784571Y-81264285D01*
X75879810Y-81216666D01*
X76117905Y-81216666D01*
X76213143Y-81264285D01*
X76260762Y-81311904D01*
X76308381Y-81407142D01*
X76308381Y-81692857D01*
X76260762Y-81788095D01*
X76213143Y-81835714D01*
X69532667Y-87944762D02*
X69675524Y-87992381D01*
X69913620Y-87992381D01*
X70008858Y-87944762D01*
X70056477Y-87897143D01*
X70104096Y-87801905D01*
X70104096Y-87706667D01*
X70056477Y-87611429D01*
X70008858Y-87563810D01*
X69913620Y-87516190D01*
X69723143Y-87468571D01*
X69627905Y-87420952D01*
X69580286Y-87373333D01*
X69532667Y-87278095D01*
X69532667Y-87182857D01*
X69580286Y-87087619D01*
X69627905Y-87040000D01*
X69723143Y-86992381D01*
X69961239Y-86992381D01*
X70104096Y-87040000D01*
X70437429Y-86992381D02*
X70675524Y-87992381D01*
X70866001Y-87278095D01*
X71056477Y-87992381D01*
X71294572Y-86992381D01*
X72104096Y-87325714D02*
X72104096Y-87992381D01*
X71866000Y-86944762D02*
X71627905Y-87659048D01*
X72246953Y-87659048D01*
X69532667Y-87944762D02*
X69675524Y-87992381D01*
X69913620Y-87992381D01*
X70008858Y-87944762D01*
X70056477Y-87897143D01*
X70104096Y-87801905D01*
X70104096Y-87706667D01*
X70056477Y-87611429D01*
X70008858Y-87563810D01*
X69913620Y-87516190D01*
X69723143Y-87468571D01*
X69627905Y-87420952D01*
X69580286Y-87373333D01*
X69532667Y-87278095D01*
X69532667Y-87182857D01*
X69580286Y-87087619D01*
X69627905Y-87040000D01*
X69723143Y-86992381D01*
X69961239Y-86992381D01*
X70104096Y-87040000D01*
X70437429Y-86992381D02*
X70675524Y-87992381D01*
X70866001Y-87278095D01*
X71056477Y-87992381D01*
X71294572Y-86992381D01*
X72104096Y-87325714D02*
X72104096Y-87992381D01*
X71866000Y-86944762D02*
X71627905Y-87659048D01*
X72246953Y-87659048D01*
X70104095Y-109982381D02*
X70675524Y-109982381D01*
X70389809Y-110982381D02*
X70389809Y-109982381D01*
X71532667Y-110982381D02*
X70961238Y-110982381D01*
X71246952Y-110982381D02*
X71246952Y-109982381D01*
X71151714Y-110125238D01*
X71056476Y-110220476D01*
X70961238Y-110268095D01*
D14*
X70592190Y-113410952D02*
X70592190Y-113125238D01*
X71092190Y-113268095D02*
X70592190Y-113268095D01*
X71092190Y-112696667D02*
X71092190Y-112982381D01*
X71092190Y-112839524D02*
X70592190Y-112839524D01*
X70663619Y-112887143D01*
X70711238Y-112934762D01*
X70735048Y-112982381D01*
D12*
X80264095Y-97424381D02*
X80264095Y-98233905D01*
X80311714Y-98329143D01*
X80359333Y-98376762D01*
X80454571Y-98424381D01*
X80645048Y-98424381D01*
X80740286Y-98376762D01*
X80787905Y-98329143D01*
X80835524Y-98233905D01*
X80835524Y-97424381D01*
X81835524Y-98424381D02*
X81264095Y-98424381D01*
X81549809Y-98424381D02*
X81549809Y-97424381D01*
X81454571Y-97567238D01*
X81359333Y-97662476D01*
X81264095Y-97710095D01*
D11*
X80587905Y-94081524D02*
X81235524Y-94081524D01*
X81311714Y-94043429D01*
X81349810Y-94005333D01*
X81387905Y-93929143D01*
X81387905Y-93776762D01*
X81349810Y-93700571D01*
X81311714Y-93662476D01*
X81235524Y-93624381D01*
X80587905Y-93624381D01*
X81387905Y-92824381D02*
X81387905Y-93281524D01*
X81387905Y-93052953D02*
X80587905Y-93052953D01*
X80702190Y-93129143D01*
X80778381Y-93205334D01*
X80816476Y-93281524D01*
M02*
